<?xml version="1.0" encoding="UTF-8" standalone="no"?>
<svg
   width="120"
   height="42"
   viewBox="0 0 120 42"
   fill="none"
   version="1.1"
   id="svg19"
   sodipodi:docname="cc_white.svg"
   inkscape:version="1.4.2 (f4327f4, 2025-05-13)"
   xmlns:inkscape="http://www.inkscape.org/namespaces/inkscape"
   xmlns:sodipodi="http://sodipodi.sourceforge.net/DTD/sodipodi-0.dtd"
   xmlns="http://www.w3.org/2000/svg"
   xmlns:svg="http://www.w3.org/2000/svg">
  <sodipodi:namedview
     id="namedview19"
     pagecolor="#505050"
     bordercolor="#eeeeee"
     borderopacity="1"
     inkscape:showpageshadow="0"
     inkscape:pageopacity="0"
     inkscape:pagecheckerboard="0"
     inkscape:deskcolor="#505050"
     inkscape:zoom="7.4"
     inkscape:cx="83.918919"
     inkscape:cy="13.310811"
     inkscape:window-width="1920"
     inkscape:window-height="1009"
     inkscape:window-x="1912"
     inkscape:window-y="149"
     inkscape:window-maximized="1"
     inkscape:current-layer="svg19" />
  <path
     id="path2"
     d="M 2.2460938 0 C 1.0078137 0 -2.9605947e-16 1.0078138 0 2.2460938 L 0 41.492188 C 0 41.773388 0.2265625 42 0.5078125 42 L 119.49219 42 C 119.77319 42 120 41.773388 120 41.492188 L 120 2.2460938 C 120 1.0078137 118.99191 -2.9605947e-16 117.75391 0 L 2.2460938 0 z M 2.2460938 1.015625 L 117.75391 1.015625 C 118.43391 1.015625 118.98438 1.5664137 118.98438 2.2460938 L 118.98438 29.46875 L 36.429688 29.46875 C 33.402287 34.93745 27.570313 38.652344 20.882812 38.652344 C 14.187513 38.652344 8.3593775 34.94135 5.3359375 29.46875 L 1.015625 29.46875 L 1.015625 2.2460938 C 1.015625 1.5664138 1.5664137 1.015625 2.2460938 1.015625 z M 80.914062 32.585938 C 81.281162 32.585938 81.625019 32.636687 81.949219 32.742188 C 82.273419 32.847687 82.566413 33.000025 82.820312 33.203125 C 83.078114 33.402325 83.289131 33.652319 83.457031 33.949219 C 83.625031 34.246119 83.730536 34.58585 83.773438 34.96875 L 82.363281 34.96875 C 82.335881 34.80465 82.281213 34.648419 82.195312 34.511719 C 82.109413 34.371119 81.999994 34.250031 81.871094 34.144531 C 81.742194 34.039131 81.593688 33.957037 81.429688 33.898438 C 81.265586 33.839838 81.093664 33.8125 80.914062 33.8125 C 80.585864 33.8125 80.308625 33.875 80.078125 34 C 79.851625 34.1289 79.664136 34.296919 79.523438 34.511719 C 79.382836 34.722719 79.277337 34.964781 79.210938 35.238281 C 79.148438 35.511681 79.113281 35.793031 79.113281 36.082031 C 79.113281 36.359431 79.148438 36.632831 79.210938 36.894531 C 79.277338 37.156231 79.382836 37.394464 79.523438 37.601562 C 79.664136 37.812463 79.851625 37.980475 80.078125 38.109375 C 80.308625 38.234375 80.585863 38.296875 80.914062 38.296875 C 81.359364 38.296875 81.707031 38.164125 81.957031 37.890625 C 82.210931 37.617225 82.363269 37.2578 82.417969 36.8125 L 83.828125 36.8125 C 83.793025 37.2266 83.695262 37.6016 83.539062 37.9375 C 83.386662 38.2695 83.179688 38.554662 82.929688 38.789062 C 82.675787 39.027262 82.378862 39.207031 82.039062 39.332031 C 81.699162 39.453131 81.324162 39.515625 80.914062 39.515625 C 80.406162 39.515625 79.953075 39.4297 79.546875 39.25 C 79.140575 39.0781 78.800831 38.832037 78.519531 38.523438 C 78.242231 38.214838 78.027306 37.851594 77.878906 37.433594 C 77.730506 37.015594 77.65625 36.566431 77.65625 36.082031 C 77.65625 35.585931 77.730506 35.128925 77.878906 34.703125 C 78.027306 34.281225 78.242231 33.91015 78.519531 33.59375 C 78.800831 33.28115 79.140575 33.031163 79.546875 32.851562 C 79.953075 32.671864 80.406164 32.585938 80.914062 32.585938 z M 99.605469 32.585938 C 99.953169 32.585938 100.28456 32.625019 100.60156 32.699219 C 100.92156 32.777319 101.20322 32.902325 101.44922 33.078125 C 101.69922 33.250025 101.89506 33.472681 102.03906 33.738281 C 102.18406 34.011681 102.25781 34.33585 102.25781 34.71875 L 100.84375 34.71875 C 100.83175 34.51945 100.78875 34.355463 100.71875 34.226562 C 100.64875 34.097662 100.5545 33.996075 100.4375 33.921875 C 100.3195 33.847675 100.18816 33.793025 100.03516 33.765625 C 99.887052 33.734425 99.718769 33.71875 99.542969 33.71875 C 99.425769 33.71875 99.308506 33.730506 99.191406 33.753906 C 99.074206 33.781306 98.9688 33.824213 98.875 33.882812 C 98.7774 33.945312 98.699219 34.023387 98.636719 34.117188 C 98.578119 34.210887 98.546875 34.32805 98.546875 34.46875 C 98.546875 34.59765 98.570387 34.703056 98.617188 34.785156 C 98.667986 34.863256 98.765656 34.941412 98.910156 35.007812 C 99.058556 35.074213 99.257819 35.144537 99.511719 35.210938 C 99.769519 35.277338 100.10553 35.367156 100.51953 35.472656 C 100.64053 35.496056 100.81325 35.542969 101.03125 35.605469 C 101.25025 35.671869 101.46859 35.773369 101.68359 35.917969 C 101.90159 36.058569 102.08609 36.249981 102.24609 36.488281 C 102.40209 36.726581 102.48047 37.031244 102.48047 37.402344 C 102.48047 37.703144 102.42169 37.984394 102.30469 38.246094 C 102.18769 38.503894 102.01225 38.730469 101.78125 38.917969 C 101.55125 39.105469 101.26197 39.253875 100.91797 39.359375 C 100.57397 39.464775 100.17986 39.515625 99.726562 39.515625 C 99.363264 39.515625 99.007863 39.472713 98.664062 39.382812 C 98.320363 39.293012 98.019514 39.152331 97.757812 38.957031 C 97.492114 38.765631 97.285106 38.519456 97.128906 38.222656 C 96.976506 37.925756 96.90235 37.574169 96.90625 37.167969 L 98.320312 37.167969 C 98.320312 37.390569 98.359306 37.578069 98.441406 37.730469 C 98.519506 37.886669 98.624919 38.011675 98.761719 38.109375 C 98.894519 38.203075 99.046864 38.273412 99.226562 38.320312 C 99.406262 38.367213 99.58985 38.390625 99.78125 38.390625 C 99.91015 38.390625 100.05122 38.378875 100.19922 38.359375 C 100.34822 38.335875 100.48519 38.296875 100.61719 38.234375 C 100.74619 38.171875 100.85141 38.085864 100.94141 37.976562 C 101.02341 37.871063 101.07031 37.730506 101.07031 37.566406 C 101.07031 37.386706 101.01144 37.242206 100.89844 37.128906 C 100.78444 37.019506 100.63322 36.925764 100.44922 36.851562 C 100.26222 36.777262 100.05081 36.71095 99.820312 36.65625 C 99.582014 36.60165 99.347669 36.539056 99.105469 36.472656 C 98.859369 36.410156 98.617113 36.331986 98.382812 36.242188 C 98.148414 36.156188 97.937406 36.039131 97.753906 35.894531 C 97.566406 35.753931 97.417986 35.574181 97.304688 35.363281 C 97.191486 35.148381 97.132812 34.890644 97.132812 34.589844 C 97.132812 34.246144 97.207064 33.953125 97.351562 33.703125 C 97.496063 33.453125 97.683569 33.242219 97.917969 33.074219 C 98.152369 32.910219 98.42185 32.785225 98.71875 32.703125 C 99.01175 32.625025 99.308569 32.585938 99.605469 32.585938 z M 45.277344 32.746094 L 48.402344 32.746094 C 48.714844 32.746094 49.003925 32.777331 49.265625 32.832031 C 49.523425 32.886731 49.749994 32.976569 49.933594 33.105469 C 50.121094 33.230469 50.261687 33.398375 50.367188 33.609375 C 50.468687 33.820275 50.519531 34.078119 50.519531 34.386719 C 50.519531 34.722719 50.445269 34.999956 50.292969 35.222656 C 50.140569 35.445256 49.914087 35.625031 49.617188 35.769531 C 50.027287 35.886731 50.331956 36.093719 50.535156 36.386719 C 50.738256 36.679719 50.839844 37.035219 50.839844 37.449219 C 50.839844 37.781219 50.773431 38.070306 50.644531 38.316406 C 50.511731 38.558606 50.335887 38.761662 50.117188 38.914062 C 49.898387 39.070262 49.644481 39.183612 49.363281 39.257812 C 49.081981 39.332012 48.792994 39.371094 48.496094 39.371094 L 45.277344 39.371094 L 45.277344 32.746094 z M 51.09375 32.746094 L 52.726562 32.746094 L 54.277344 35.363281 L 55.820312 32.746094 L 57.445312 32.746094 L 54.984375 36.828125 L 54.984375 39.371094 L 53.523438 39.371094 L 53.523438 36.789062 L 51.09375 32.746094 z M 71.070312 32.746094 L 72.519531 32.746094 L 75.285156 37.191406 L 75.300781 37.191406 L 75.300781 32.746094 L 76.667969 32.746094 L 76.667969 39.371094 L 75.210938 39.371094 L 72.453125 34.9375 L 72.433594 34.9375 L 72.433594 39.371094 L 71.070312 39.371094 L 71.070312 32.746094 z M 105.15234 32.746094 L 106.64453 32.746094 L 109.12109 39.371094 L 107.60938 39.371094 L 107.10938 37.894531 L 104.63281 37.894531 L 104.11328 39.371094 L 102.64844 39.371094 L 105.15234 32.746094 z M 46.738281 33.878906 L 46.738281 35.425781 L 48.214844 35.425781 C 48.476644 35.425781 48.687469 35.363287 48.855469 35.242188 C 49.023369 35.117188 49.105469 34.918025 49.105469 34.640625 C 49.105469 34.484425 49.078136 34.359419 49.023438 34.261719 C 48.968738 34.160219 48.894481 34.085944 48.800781 34.027344 C 48.706981 33.972744 48.601569 33.933563 48.480469 33.914062 C 48.359369 33.890563 48.234362 33.878906 48.101562 33.878906 L 46.738281 33.878906 z M 105.875 34.378906 L 105.01562 36.808594 L 106.73047 36.808594 L 105.89453 34.378906 L 105.875 34.378906 z M 46.738281 36.417969 L 46.738281 38.234375 L 48.300781 38.234375 C 48.441381 38.234375 48.578131 38.222713 48.707031 38.195312 C 48.839831 38.168014 48.953088 38.121087 49.054688 38.054688 C 49.152287 37.992188 49.230463 37.902263 49.289062 37.789062 C 49.347663 37.679662 49.378906 37.539081 49.378906 37.363281 C 49.378906 37.023381 49.281244 36.781219 49.089844 36.636719 C 48.898444 36.492219 48.644525 36.417969 48.328125 36.417969 L 46.738281 36.417969 z "
     style="fill:#ffffff" />
  <path
     d="m 31.9727,8.44531 c 3.0234,3.02349 4.5351,6.72659 4.5351,11.10549 0,4.3789 -1.4883,8.043 -4.457,10.9883 -3.1563,3.1015 -6.8828,4.6523 -11.1836,4.6523 -4.25,0 -7.9102,-1.5391 -10.98439,-4.6133 -3.07812,-3.0742 -4.61328,-6.75 -4.61328,-11.0273 0,-4.2735 1.53516,-7.9766 4.61328,-11.10549 2.99609,-3.02343 6.65629,-4.53515 10.98439,-4.53515 4.3789,0 8.082,1.51172 11.1055,4.53515 z M 11.918,10.4805 c -2.55862,2.582 -3.83597,5.6054 -3.83597,9.0742 0,3.4687 1.26563,6.4687 3.79297,8.9961 2.5312,2.5312 5.543,3.793 9.0391,3.793 3.4961,0 6.5312,-1.2774 9.1132,-3.8321 2.4532,-2.3711 3.6797,-5.3594 3.6797,-8.957 0,-3.5703 -1.2461,-6.6016 -3.7382,-9.0938 -2.4922,-2.48824 -5.5079,-3.73434 -9.0547,-3.73434 -3.5469,0 -6.5469,1.25 -8.9961,3.75394 z m 6.7265,7.5507 c -0.3906,-0.8515 -0.9765,-1.2773 -1.7578,-1.2773 -1.375,0 -2.0664,0.9258 -2.0664,2.7813 0,1.8554 0.6914,2.7851 2.0664,2.7851 0.9102,0 1.5625,-0.4531 1.9531,-1.3594 l 1.9102,1.0196 c -0.9102,1.6172 -2.2773,2.4257 -4.0977,2.4257 -1.4062,0 -2.5312,-0.4296 -3.3789,-1.2929 -0.8437,-0.8594 -1.2695,-2.0469 -1.2695,-3.5625 0,-1.4883 0.4375,-2.668 1.3086,-3.543 0.8711,-0.875 1.9609,-1.3125 3.2617,-1.3125 1.9258,0 3.3047,0.7578 4.1367,2.2774 z m 8.9883,0 c -0.3906,-0.8515 -0.9648,-1.2773 -1.7187,-1.2773 -1.4063,0 -2.1094,0.9258 -2.1094,2.7813 0,1.8554 0.7031,2.7851 2.1094,2.7851 0.914,0 1.5507,-0.4531 1.914,-1.3594 l 1.9531,1.0196 c -0.9101,1.6172 -2.2734,2.4257 -4.0898,2.4257 -1.4062,0 -2.5273,-0.4296 -3.375,-1.2929 -0.8398,-0.8594 -1.2656,-2.0469 -1.2656,-3.5625 0,-1.4883 0.4297,-2.668 1.289,-3.543 0.8555,-0.875 1.9454,-1.3125 3.2735,-1.3125 1.9219,0 3.2969,0.7578 4.1289,2.2774 z"
     fill="#000000"
     id="path4"
     style="fill:#ffffff" />
  <path
     d="m 54.8711,12.1172 c 0,-0.4141 -0.3359,-0.75 -0.75,-0.75 h -4.7422 c -0.4141,0 -0.75,0.3359 -0.75,0.75 v 4.7422 h 1.3242 v 5.6172 h 3.5938 v -5.6172 h 1.3242 z"
     fill="#000000"
     id="path6"
     style="fill:#ffffff" />
  <path
     d="m 53.3711,9.12109 c 0,0.89451 -0.7227,1.62111 -1.6211,1.62111 -0.8945,0 -1.6211,-0.7266 -1.6211,-1.62111 C 50.1289,8.22656 50.8555,7.5 51.75,7.5 c 0.8984,0 1.6211,0.72656 1.6211,1.62109 z"
     fill="#000000"
     id="path7"
     style="fill:#ffffff" />
  <path
     fill-rule="evenodd"
     clip-rule="evenodd"
     d="m 51.7344,3.39062 c -3.211,0 -5.9297,1.1211 -8.1563,3.36329 -2.2812,2.32031 -3.4219,5.06249 -3.4219,8.23439 0,3.1679 1.1407,5.8945 3.4219,8.1719 2.2852,2.2812 5.0039,3.4218 8.1563,3.4218 3.1953,0 5.9609,-1.1484 8.3047,-3.4492 2.207,-2.1836 3.3086,-4.8984 3.3086,-8.1445 0,-3.25 -1.1211,-5.99221 -3.3672,-8.23439 C 57.7344,4.51172 54.9883,3.39062 51.7344,3.39062 Z m 0.0312,2.08985 c 2.6328,0 4.8672,0.92578 6.7032,2.78125 1.8593,1.83598 2.789,4.07808 2.789,6.72658 0,2.664 -0.9101,4.8789 -2.7305,6.6367 -1.914,1.8945 -4.1679,2.8398 -6.7617,2.8398 -2.5937,0 -4.8281,-0.9375 -6.707,-2.8125 -1.875,-1.8711 -2.8125,-4.0937 -2.8125,-6.664 0,-2.5703 0.9453,-4.8125 2.8437,-6.72658 1.8204,-1.85547 4.043,-2.78125 6.6758,-2.78125 z"
     fill="#000000"
     id="path8"
     style="fill:#ffffff" />
  <path
     d="m 103.918,3.38672 c -3.211,0 -5.9297,1.12109 -8.1563,3.35937 -2.2812,2.32032 -3.4258,5.06641 -3.4258,8.23441 0,3.1679 1.1446,5.8945 3.4258,8.1757 2.2852,2.2813 5.0043,3.418 8.1563,3.418 3.195,0 5.961,-1.1484 8.301,-3.4492 2.207,-2.1836 3.312,-4.8984 3.312,-8.1445 0,-3.2461 -1.125,-5.99222 -3.367,-8.23441 -2.246,-2.23828 -4.992,-3.35937 -8.246,-3.35937 z m 0.031,2.08594 c 2.629,0 4.863,0.92578 6.703,2.78515 1.86,1.83199 2.786,4.07419 2.786,6.72269 0,2.6679 -0.907,4.8789 -2.727,6.6406 -1.914,1.8906 -4.172,2.8398 -6.762,2.8398 -2.594,0 -4.8279,-0.9375 -6.7068,-2.8125 -1.875,-1.875 -2.8164,-4.0976 -2.8164,-6.6679 0,-2.5703 0.9492,-4.8125 2.8476,-6.72269 1.8164,-1.85937 4.0426,-2.78515 6.6756,-2.78515 z"
     fill="#000000"
     id="path16"
     style="fill:#ffffff" />
  <path
     d="m 98.7773,13.3437 c 0.4649,-2.9179 2.5157,-4.47651 5.0937,-4.47651 3.699,0 5.957,2.68751 5.957,6.26951 0,3.4922 -2.402,6.207 -6.016,6.207 -2.488,0 -4.7143,-1.5273 -5.1206,-4.5351 h 2.9216 c 0.086,1.5625 1.098,2.1094 2.547,2.1094 1.645,0 2.719,-1.5313 2.719,-3.8711 0,-2.4532 -0.926,-3.7539 -2.664,-3.7539 -1.27,0 -2.371,0.4648 -2.602,2.0507 l 0.848,-0.0039 -2.297,2.2969 -2.3007,-2.2969 z"
     fill="#000000"
     id="path17"
     style="fill:#ffffff" />
  <path
     d="m 77.8281,3.38672 c 3.25,0 5.9961,1.12109 8.2422,3.35937 2.2461,2.24219 3.3672,4.98831 3.3672,8.23441 0,3.2461 -1.1016,5.9609 -3.3086,8.1445 -2.3398,2.3008 -5.1094,3.4492 -8.3008,3.4492 -3.1562,0 -5.875,-1.1367 -8.1562,-3.418 -2.2852,-2.2812 -3.4258,-5.0078 -3.4258,-8.1757 0,-3.168 1.1406,-5.91409 3.4258,-8.23441 2.2265,-2.23828 4.9414,-3.35937 8.1562,-3.35937 z m -8.9726,8.48048 c -0.3477,0.9766 -0.5196,2.0156 -0.5196,3.1133 0,2.5703 0.9375,4.7929 2.8164,6.6679 1.875,1.875 4.1094,2.8125 6.7032,2.8125 2.5937,0 4.8476,-0.9492 6.7656,-2.8437 0.6406,-0.6172 1.168,-1.293 1.582,-2.0274 L 81.832,17.6445 c -0.2968,1.4688 -1.6054,2.4649 -3.1914,2.5821 v 1.7851 h -1.332 V 20.2266 C 76.0078,20.2109 74.75,19.6758 73.7891,18.8359 l 1.5976,-1.6093 c 0.7695,0.7226 1.5391,1.0468 2.5899,1.0468 0.6796,0 1.4336,-0.2656 1.4336,-1.1523 0,-0.3125 -0.1211,-0.5313 -0.3125,-0.6953 l -1.1055,-0.4922 -1.3789,-0.6133 c -0.6797,-0.3047 -1.2578,-0.5586 -1.836,-0.8164 z m 9,-6.39454 c -2.6328,0 -4.8555,0.92578 -6.6758,2.78515 -0.4961,0.4961 -0.9258,1.01953 -1.2891,1.5625 l 4.4297,1.97659 c 0.4024,-1.2305 1.5703,-1.97659 2.9883,-2.05862 V 7.94922 h 1.332 v 1.78906 c 0.918,0.04297 1.9219,0.29292 2.9141,1.06252 l -1.5235,1.5664 c -0.5624,-0.3984 -1.2734,-0.6797 -1.9843,-0.6797 -0.5742,0 -1.3867,0.1758 -1.3867,0.8984 0,0.1133 0.0351,0.211 0.1015,0.2969 l 1.4844,0.6602 1.0039,0.4453 c 0.6406,0.2851 1.2539,0.5586 1.8633,0.8281 l 5.9414,2.6484 c 0.1953,-0.7812 0.293,-1.6093 0.293,-2.4843 0,-2.6485 -0.9297,-4.8907 -2.7852,-6.72269 -1.8398,-1.85937 -4.0742,-2.78515 -6.707,-2.78515 z"
     fill="#000000"
     id="path19"
     style="fill:#ffffff" />
  <defs
     id="defs19" />
</svg>
