<svg width="155" height="49" viewBox="0 0 155 49" fill="none" xmlns="http://www.w3.org/2000/svg">
<path d="M58.0329 7.87903H60.583C61.1858 7.87903 61.6726 8.36585 61.6726 8.96859V36.2197C61.6726 36.6022 61.974 36.9036 62.3565 36.9036H78.5263C79.1291 36.9036 79.6159 37.3904 79.6159 37.9932V39.9289C79.6159 40.5316 79.1291 41.0185 78.5263 41.0185H58.0329C57.4302 41.0185 56.9434 40.5316 56.9434 39.9289V8.96859C56.9434 8.36585 57.4302 7.87903 58.0329 7.87903Z" fill="white"/>
<path d="M105.882 32.7421H89.1785C88.9003 32.7421 88.6569 32.9044 88.541 33.1594L85.3649 40.3807C85.1911 40.7748 84.797 41.0298 84.3681 41.0298H81.8992C81.1109 41.0298 80.5778 40.2068 80.9023 39.4882L94.9277 8.5279C95.1016 8.1338 95.4957 7.89038 95.9246 7.89038H99.2049C99.6338 7.89038 100.016 8.14539 100.202 8.5279L114.25 39.4882C114.575 40.2068 114.053 41.0298 113.254 41.0298H110.692C110.263 41.0298 109.869 40.7748 109.695 40.3807L106.519 33.1594C106.403 32.9044 106.148 32.7421 105.882 32.7421ZM104.34 28.1983L98.011 13.8367C97.8256 13.4078 97.2113 13.4078 97.0258 13.8367L90.6969 28.1983C90.5346 28.5576 90.8012 28.9517 91.1953 28.9517H103.841C104.236 28.9517 104.502 28.5576 104.34 28.1983Z" fill="white"/>
<path d="M119.838 7.87903H122.388C122.991 7.87903 123.477 8.36585 123.477 8.96859V39.9289C123.477 40.5316 122.991 41.0185 122.388 41.0185H119.838C119.235 41.0185 118.748 40.5316 118.748 39.9289V8.96859C118.737 8.36585 119.235 7.87903 119.838 7.87903Z" fill="white"/>
<path d="M134.732 40.2413C132.785 39.5922 131.185 38.7808 129.933 37.8072C129.527 37.4942 129.4 36.9378 129.62 36.4742L130.42 34.7934C130.71 34.1907 131.475 33.9589 132.031 34.353C133.109 35.1296 134.396 35.7787 135.868 36.3119C137.838 37.019 139.867 37.3783 141.953 37.3783C144.7 37.3783 146.752 36.9146 148.108 35.9757C149.464 35.0484 150.148 33.8082 150.148 32.2549C150.148 31.119 149.777 30.1917 149.036 29.4846C148.294 28.7776 147.378 28.2328 146.288 27.8503C145.199 27.4677 143.657 27.0505 141.675 26.5752C139.183 25.9725 137.166 25.3813 135.636 24.7786C134.106 24.1758 132.796 23.2601 131.707 22.0082C130.617 20.7564 130.072 19.0757 130.072 16.9661C130.072 15.2042 130.536 13.6046 131.475 12.1788C132.402 10.7531 133.816 9.61717 135.717 8.77101C137.606 7.91326 139.96 7.49597 142.776 7.49597C144.735 7.49597 146.659 7.75098 148.549 8.24941C150.079 8.6551 151.435 9.21149 152.617 9.90697C153.092 10.1852 153.278 10.7647 153.069 11.2631L152.327 13.0482C152.084 13.6509 151.365 13.8944 150.797 13.593C149.719 13.0134 148.583 12.5382 147.401 12.202C145.825 11.75 144.271 11.5182 142.765 11.5182C140.075 11.5182 138.07 12.005 136.726 12.9902C135.381 13.9639 134.709 15.2274 134.709 16.7806C134.709 17.9165 135.091 18.8438 135.845 19.5509C136.598 20.258 137.537 20.8144 138.661 21.2085C139.786 21.6026 141.304 22.0198 143.228 22.4603C145.72 23.0631 147.726 23.6658 149.244 24.257C150.763 24.8597 152.061 25.7754 153.15 27.0041C154.24 28.2328 154.785 29.8903 154.785 31.9767C154.785 33.7154 154.31 35.3034 153.359 36.7408C152.409 38.1781 150.971 39.314 149.047 40.1486C147.123 40.9832 144.758 41.4005 141.942 41.4005C139.45 41.4005 137.05 41.018 134.732 40.2413Z" fill="white"/>
<path d="M46.5805 22.5767C45.5489 22.5767 44.7027 23.4228 44.7027 24.4544C44.7027 35.6168 35.6268 44.7044 24.4528 44.7044C15.968 44.7044 8.3293 39.3492 5.41989 31.386C5.06056 30.4124 3.98258 29.9139 3.00892 30.2617C2.03525 30.621 1.53682 31.699 1.88456 32.6727C5.32717 42.1196 14.3915 48.46 24.4412 48.46C37.6784 48.46 48.4467 37.6917 48.4467 24.4544C48.4583 23.4228 47.6121 22.5767 46.5805 22.5767Z" fill="white"/>
<path d="M46.5804 22.5758H35.2905L31.222 13.4766C30.909 12.7812 30.2135 12.3523 29.4369 12.3639C28.6719 12.3871 27.9996 12.8739 27.733 13.6041L23.1081 26.3198L19.5959 17.5568C19.3177 16.8613 18.6454 16.3976 17.8456 16.3744C17.1154 16.3744 16.4431 16.8033 16.1301 17.4756L13.8119 22.5874H2.31333C1.2817 22.5874 0.435547 23.4335 0.435547 24.4652C0.435547 25.4968 1.2817 26.343 2.31333 26.343H15.0174C15.7592 26.343 16.4199 25.9141 16.7329 25.2418L17.7297 23.0394L21.4274 32.2777C21.7171 32.9963 22.401 33.46 23.1661 33.46H23.1892C23.9658 33.4484 24.6613 32.95 24.9279 32.2197L29.6571 19.2491L32.3347 25.2302C32.6361 25.9025 33.3084 26.343 34.0502 26.343H46.5572C47.5889 26.343 48.435 25.4968 48.435 24.4652C48.4582 23.422 47.612 22.5758 46.5804 22.5758Z" fill="white"/>
<path d="M47.0202 16.2473C43.5776 6.80038 34.5132 0.459961 24.4636 0.459961C11.2263 0.459961 0.458008 11.2283 0.458008 24.4655C0.458008 25.4971 1.3042 26.3433 2.33582 26.3433C3.36745 26.3433 4.21361 25.4971 4.21361 24.4655C4.21361 13.3031 13.2896 4.21554 24.4636 4.21554C32.9484 4.21554 40.587 9.5707 43.4964 17.5339C43.6703 18.0091 44.018 18.3801 44.4701 18.6003C44.9221 18.809 45.4322 18.8321 45.9074 18.6583C46.3827 18.4844 46.7536 18.1367 46.9622 17.6846C47.1709 17.2209 47.1825 16.7109 47.0202 16.2473Z" fill="white"/>
</svg>
