<svg width="198" height="49" viewBox="0 0 198 49" fill="none" xmlns="http://www.w3.org/2000/svg">
<path d="M119.97 44.0637C119.81 43.8747 119.611 43.723 119.373 43.6088C119.135 43.4925 118.881 43.4354 118.607 43.4354C118.333 43.4354 118.091 43.4906 117.855 43.6009C117.618 43.7112 117.417 43.8569 117.252 44.0381C117.086 44.2193 116.954 44.4321 116.858 44.6743C116.761 44.9166 116.714 45.1687 116.714 45.4267C116.714 45.6276 116.744 45.8246 116.801 46.0196C116.858 46.2146 116.943 46.3978 117.053 46.5652C117.163 46.7326 117.295 46.8803 117.445 47.0083C117.595 47.1364 117.77 47.2368 117.969 47.3097C118.168 47.3826 118.376 47.42 118.597 47.42C118.863 47.42 119.113 47.3648 119.349 47.2565C119.586 47.1482 119.785 47.0024 119.95 46.8193C120.114 46.6381 120.244 46.4253 120.34 46.1831C120.437 45.9408 120.484 45.6907 120.484 45.4307C120.484 45.1707 120.439 44.9402 120.346 44.7019C120.254 44.4636 120.129 44.2489 119.97 44.0618V44.0637ZM119.765 45.9506C119.708 46.12 119.629 46.2737 119.527 46.4096C119.424 46.5455 119.292 46.6558 119.133 46.7385C118.973 46.8212 118.796 46.8626 118.605 46.8626C118.357 46.8626 118.134 46.7937 117.939 46.6577C117.744 46.5199 117.597 46.3446 117.498 46.1279C117.398 45.9113 117.348 45.6788 117.348 45.4307C117.348 45.2514 117.378 45.0781 117.435 44.9087C117.492 44.7393 117.575 44.5877 117.679 44.4518C117.784 44.3159 117.918 44.2075 118.077 44.1268C118.239 44.044 118.414 44.0047 118.605 44.0047C118.796 44.0047 118.959 44.044 119.117 44.1228C119.275 44.2016 119.407 44.306 119.511 44.4399C119.615 44.5719 119.7 44.7255 119.759 44.8969C119.82 45.0702 119.85 45.2475 119.85 45.4346C119.85 45.6217 119.822 45.7872 119.765 45.9566V45.9506Z" fill="white"/>
<path d="M125.323 45.6434H127.078V45.1274H125.323V44.0106H127.35V43.463H124.705V47.3944H127.399V46.8449H125.323V45.6434Z" fill="white"/>
<path d="M134.333 45.4642C134.472 45.2495 134.543 45.0072 134.543 44.7413C134.543 44.5837 134.512 44.4301 134.451 44.2765C134.39 44.1228 134.307 43.9869 134.203 43.8648C134.098 43.7447 133.968 43.6462 133.815 43.5733C133.661 43.4985 133.497 43.463 133.326 43.463H131.615V47.3944H132.233V46.0255H133.147L134.002 47.3944H134.699L133.775 45.8994C134.006 45.8266 134.191 45.6808 134.333 45.4661V45.4642ZM133.32 45.476H132.233V44.0106H133.285C133.45 44.0106 133.596 44.0815 133.722 44.2253C133.848 44.369 133.911 44.5404 133.911 44.7413C133.911 44.9422 133.856 45.1175 133.744 45.2613C133.631 45.4051 133.49 45.476 133.32 45.476Z" fill="white"/>
<path d="M187.786 44.0637C187.627 43.8747 187.428 43.723 187.19 43.6088C186.951 43.4925 186.697 43.4354 186.425 43.4354C186.153 43.4354 185.909 43.4906 185.673 43.6009C185.437 43.7112 185.236 43.8569 185.07 44.0381C184.905 44.2193 184.773 44.4321 184.676 44.6743C184.58 44.9166 184.532 45.1687 184.532 45.4267C184.532 45.6276 184.562 45.8246 184.619 46.0196C184.676 46.2146 184.761 46.3978 184.871 46.5652C184.982 46.7326 185.114 46.8803 185.263 47.0083C185.413 47.1364 185.588 47.2368 185.787 47.3097C185.986 47.3826 186.195 47.42 186.415 47.42C186.679 47.42 186.931 47.3648 187.168 47.2565C187.404 47.1482 187.603 47.0024 187.769 46.8193C187.932 46.6381 188.062 46.4253 188.159 46.1831C188.255 45.9408 188.302 45.6907 188.302 45.4307C188.302 45.1707 188.257 44.9402 188.164 44.7019C188.072 44.4636 187.948 44.2489 187.786 44.0618V44.0637ZM187.581 45.9506C187.524 46.12 187.446 46.2737 187.343 46.4096C187.241 46.5455 187.109 46.6558 186.949 46.7385C186.79 46.8212 186.612 46.8626 186.421 46.8626C186.173 46.8626 185.951 46.7937 185.756 46.6577C185.561 46.5199 185.413 46.3446 185.314 46.1279C185.214 45.9113 185.165 45.6788 185.165 45.4307C185.165 45.2514 185.194 45.0781 185.251 44.9087C185.308 44.7393 185.389 44.5877 185.496 44.4518C185.6 44.3159 185.734 44.2075 185.893 44.1268C186.055 44.044 186.23 44.0047 186.421 44.0047C186.612 44.0047 186.776 44.044 186.933 44.1228C187.091 44.2016 187.223 44.306 187.327 44.4399C187.434 44.5719 187.516 44.7255 187.576 44.8969C187.637 45.0702 187.666 45.2475 187.666 45.4346C187.666 45.6217 187.639 45.7872 187.581 45.9566V45.9506Z" fill="white"/>
<path d="M107.041 46.3032L104.814 43.463H104.305V47.3944H104.924V44.6152L107.122 47.3944H107.666V43.4669H107.041V46.3032Z" fill="white"/>
<path d="M136.999 45.6434H138.754V45.1274H136.999V44.0106H139.028V43.463H136.381V47.3944H139.075V46.8449H136.999V45.6434Z" fill="white"/>
<path d="M101.747 45.4543C101.747 45.602 101.737 45.7419 101.715 45.8719C101.694 46.0019 101.658 46.1299 101.605 46.252C101.552 46.3741 101.487 46.4805 101.408 46.5691C101.329 46.6578 101.227 46.7287 101.101 46.7818C100.975 46.835 100.833 46.8626 100.671 46.8626C100.51 46.8626 100.372 46.837 100.246 46.7838C100.122 46.7306 100.02 46.6617 99.9407 46.575C99.8619 46.4884 99.795 46.384 99.7418 46.2619C99.6886 46.1397 99.6512 46.0117 99.6295 45.8798C99.6078 45.7478 99.596 45.606 99.596 45.4563V43.463H98.9736V45.4563C98.9736 45.667 98.9914 45.866 99.0288 46.0531C99.0662 46.2402 99.1273 46.4175 99.212 46.5888C99.2966 46.7582 99.403 46.904 99.531 47.0261C99.6591 47.1462 99.8206 47.2427 100.014 47.3156C100.207 47.3885 100.425 47.4239 100.669 47.4239C100.963 47.4239 101.221 47.3727 101.444 47.2703C101.666 47.1679 101.843 47.0241 101.977 46.8409C102.109 46.6578 102.208 46.4509 102.273 46.2185C102.338 45.9861 102.369 45.734 102.369 45.4583V43.465H101.743V45.4583L101.747 45.4543Z" fill="white"/>
<path d="M110.275 43.463H109.657V47.3944H110.275V43.463Z" fill="white"/>
<path d="M113.104 42.8524C113.12 42.817 113.149 42.7874 113.189 42.7638C113.228 42.7402 113.277 42.7283 113.334 42.7283C113.399 42.7283 113.468 42.748 113.541 42.7874C113.614 42.8268 113.695 42.8662 113.779 42.9056C113.864 42.945 113.957 42.9647 114.053 42.9647C114.15 42.9647 114.228 42.945 114.305 42.9056C114.382 42.8662 114.443 42.8209 114.488 42.7658C114.534 42.7106 114.571 42.6535 114.603 42.5905C114.634 42.5274 114.656 42.4743 114.668 42.429C114.68 42.3837 114.685 42.3502 114.685 42.3265H114.337C114.337 42.3265 114.337 42.3482 114.333 42.364C114.331 42.3797 114.323 42.4014 114.309 42.4309C114.297 42.4585 114.28 42.4841 114.26 42.5077C114.24 42.5314 114.209 42.5511 114.171 42.5708C114.132 42.5885 114.089 42.5983 114.037 42.5983C113.965 42.5983 113.89 42.5786 113.813 42.5373C113.738 42.4959 113.657 42.4565 113.575 42.4152C113.492 42.3738 113.403 42.3541 113.313 42.3541C113.226 42.3541 113.147 42.3718 113.076 42.4093C113.005 42.4467 112.948 42.492 112.905 42.5452C112.864 42.5983 112.826 42.6555 112.797 42.7185C112.767 42.7815 112.747 42.8347 112.735 42.882C112.724 42.9292 112.72 42.9667 112.72 42.9923H113.062C113.062 42.9805 113.064 42.9627 113.07 42.9391C113.076 42.9174 113.086 42.8879 113.102 42.8524H113.104Z" fill="white"/>
<path d="M113.407 43.463L111.867 47.3944H112.527L112.938 46.3269H114.455L114.868 47.3944H115.522L113.994 43.463H113.407ZM113.047 45.866L113.698 44.1445L114.331 45.866H113.047Z" fill="white"/>
<path d="M182.126 42.4309C182.114 42.4585 182.096 42.4841 182.076 42.5077C182.057 42.5314 182.025 42.5511 181.988 42.5708C181.948 42.5885 181.905 42.5983 181.854 42.5983C181.779 42.5983 181.706 42.5786 181.629 42.5373C181.554 42.4959 181.474 42.4565 181.391 42.4152C181.308 42.3738 181.22 42.3541 181.129 42.3541C181.042 42.3541 180.964 42.3718 180.893 42.4093C180.822 42.4467 180.765 42.492 180.723 42.5452C180.682 42.5983 180.644 42.6555 180.615 42.7185C180.585 42.7815 180.566 42.8347 180.554 42.882C180.542 42.9292 180.538 42.9667 180.538 42.9923H180.881C180.881 42.9805 180.883 42.9627 180.889 42.9391C180.895 42.9174 180.904 42.8879 180.92 42.8524C180.936 42.817 180.964 42.7874 181.005 42.7638C181.044 42.7402 181.094 42.7283 181.151 42.7283C181.216 42.7283 181.285 42.748 181.357 42.7874C181.43 42.8268 181.509 42.8662 181.596 42.9056C181.682 42.945 181.773 42.9647 181.87 42.9647C181.966 42.9647 182.047 42.945 182.122 42.9056C182.198 42.8662 182.26 42.8209 182.305 42.7658C182.35 42.7106 182.388 42.6535 182.419 42.5905C182.451 42.5274 182.472 42.4743 182.484 42.429C182.496 42.3837 182.502 42.3502 182.502 42.3265H182.153C182.153 42.3265 182.153 42.3482 182.149 42.364C182.147 42.3797 182.139 42.4014 182.126 42.4309Z" fill="white"/>
<path d="M153.597 46.3032L151.368 43.463H150.86V47.3944H151.48V44.6152L153.678 47.3944H154.222V43.4669H153.597V46.3032Z" fill="white"/>
<path d="M167.936 45.4642C168.076 45.2495 168.147 45.0072 168.147 44.7413C168.147 44.5837 168.116 44.4301 168.055 44.2765C167.993 44.1228 167.911 43.9869 167.806 43.8648C167.702 43.7447 167.572 43.6462 167.418 43.5733C167.265 43.4985 167.101 43.463 166.93 43.463H165.218V47.3944H165.837V46.0255H166.751L167.605 47.3944H168.303L167.379 45.8994C167.609 45.8266 167.795 45.6808 167.936 45.4661V45.4642ZM166.926 45.476H165.839V44.0106H166.89C167.056 44.0106 167.202 44.0815 167.328 44.2253C167.454 44.369 167.517 44.5404 167.517 44.7413C167.517 44.9422 167.462 45.1175 167.349 45.2613C167.237 45.4051 167.095 45.476 166.924 45.476H166.926Z" fill="white"/>
<path d="M160.344 44.0106H161.653V47.3944H162.282V44.0106H163.587V43.463H160.344V44.0106Z" fill="white"/>
<path d="M158.752 45.6493C158.683 45.5725 158.593 45.5035 158.478 45.4405C158.364 45.3775 158.246 45.3263 158.124 45.2869C158.002 45.2455 157.854 45.2061 157.681 45.1648C157.572 45.1372 157.486 45.1155 157.419 45.0978C157.352 45.0801 157.281 45.0604 157.204 45.0348C157.127 45.0111 157.068 44.9875 157.023 44.9658C156.979 44.9442 156.934 44.9186 156.889 44.887C156.843 44.8555 156.81 44.824 156.788 44.7905C156.767 44.7571 156.747 44.7196 156.733 44.6763C156.719 44.633 156.712 44.5837 156.712 44.5305C156.712 44.3572 156.775 44.2233 156.903 44.1287C157.031 44.0342 157.222 43.9869 157.478 43.9869C157.694 43.9869 157.903 44.0303 158.108 44.1169C158.311 44.2036 158.457 44.2942 158.541 44.3868L158.823 43.8786C158.421 43.5831 157.978 43.4354 157.495 43.4354C157.293 43.4354 157.103 43.461 156.93 43.5142C156.757 43.5674 156.607 43.6422 156.479 43.7407C156.351 43.8392 156.251 43.9653 156.178 44.1189C156.105 44.2706 156.067 44.4419 156.067 44.631C156.067 44.7827 156.091 44.9127 156.138 45.0249C156.186 45.1352 156.26 45.2317 156.365 45.3125C156.469 45.3932 156.587 45.4622 156.723 45.5173C156.859 45.5725 157.031 45.6276 157.237 45.6828C157.371 45.7163 157.476 45.7458 157.554 45.7675C157.633 45.7891 157.72 45.8167 157.815 45.8482C157.909 45.8797 157.982 45.9113 158.033 45.9428C158.084 45.9743 158.134 46.0097 158.183 46.0531C158.232 46.0944 158.266 46.1437 158.285 46.1949C158.305 46.2461 158.315 46.3052 158.315 46.3702C158.315 46.5317 158.248 46.6577 158.116 46.7424C157.984 46.8271 157.795 46.8724 157.549 46.8724C157.277 46.8724 157.011 46.8173 156.755 46.709C156.499 46.6006 156.314 46.4864 156.199 46.3702L155.916 46.902C156.138 47.0733 156.39 47.2053 156.67 47.2959C156.95 47.3865 157.239 47.4318 157.539 47.4318C157.7 47.4318 157.852 47.418 157.994 47.3924C158.134 47.3668 158.266 47.3235 158.388 47.2644C158.51 47.2053 158.614 47.1324 158.701 47.0458C158.788 46.9591 158.854 46.8527 158.906 46.7267C158.955 46.6006 158.981 46.4588 158.981 46.3012C158.981 46.1614 158.961 46.0353 158.919 45.925C158.878 45.8147 158.825 45.7222 158.756 45.6454L158.752 45.6493Z" fill="white"/>
<path d="M177.668 46.5888C177.548 46.6892 177.424 46.7601 177.294 46.8015C177.166 46.8448 177.034 46.8645 176.898 46.8645C176.66 46.8645 176.443 46.7976 176.246 46.6636C176.049 46.5297 175.898 46.3524 175.791 46.1318C175.685 45.9112 175.63 45.6749 175.63 45.4208C175.63 45.2809 175.646 45.145 175.679 45.0091C175.713 44.8732 175.764 44.7452 175.835 44.6231C175.906 44.501 175.988 44.3926 176.087 44.302C176.183 44.2095 176.301 44.1366 176.437 44.0814C176.573 44.0263 176.723 43.9987 176.88 43.9987C176.979 43.9987 177.077 44.0086 177.172 44.0322C177.267 44.0539 177.361 44.0873 177.454 44.1326C177.548 44.1779 177.635 44.2429 177.714 44.3276C177.792 44.4123 177.859 44.5108 177.911 44.6231L178.397 44.2961C178.265 44.0361 178.07 43.8293 177.81 43.6737C177.55 43.5181 177.247 43.4393 176.902 43.4393C176.67 43.4393 176.451 43.4768 176.244 43.5516C176.039 43.6264 175.86 43.7269 175.713 43.8549C175.563 43.983 175.433 44.1307 175.325 44.2961C175.216 44.4635 175.133 44.6408 175.08 44.8279C175.027 45.017 175 45.2061 175 45.3971C175 45.6355 175.043 45.8699 175.128 46.1023C175.212 46.3347 175.33 46.5454 175.48 46.7326C175.63 46.9197 175.815 47.0753 176.034 47.2013C176.252 47.3254 176.487 47.3983 176.739 47.418C176.938 47.548 177.036 47.6839 177.036 47.8296C177.036 47.9143 177.007 47.9793 176.947 48.0227C176.888 48.066 176.808 48.0896 176.703 48.0896C176.583 48.0896 176.451 48.0502 176.311 47.9734L176.158 48.3004C176.364 48.4068 176.583 48.4599 176.81 48.4599C177.001 48.4599 177.15 48.4127 177.257 48.3201C177.363 48.2255 177.416 48.0995 177.416 47.9419C177.416 47.745 177.322 47.5677 177.133 47.4101C177.424 47.3688 177.694 47.2683 177.94 47.1107C178.186 46.9532 178.362 46.7542 178.462 46.512L177.946 46.2205C177.881 46.3662 177.789 46.4903 177.668 46.5888Z" fill="white"/>
<path d="M148.595 44.0637C148.435 43.8747 148.236 43.723 147.998 43.6088C147.76 43.4925 147.505 43.4354 147.232 43.4354C146.958 43.4354 146.716 43.4906 146.479 43.6009C146.243 43.7112 146.042 43.8569 145.877 44.0381C145.711 44.2193 145.579 44.4321 145.483 44.6743C145.386 44.9166 145.339 45.1687 145.339 45.4267C145.339 45.6276 145.368 45.8246 145.426 46.0196C145.483 46.2146 145.567 46.3978 145.678 46.5652C145.788 46.7326 145.92 46.8803 146.07 47.0083C146.219 47.1364 146.395 47.2368 146.594 47.3097C146.792 47.3826 147.001 47.42 147.222 47.42C147.488 47.42 147.738 47.3648 147.974 47.2565C148.211 47.1482 148.41 47.0024 148.575 46.8193C148.738 46.6381 148.868 46.4253 148.965 46.1831C149.061 45.9408 149.109 45.6907 149.109 45.4307C149.109 45.1707 149.063 44.9402 148.971 44.7019C148.878 44.4636 148.754 44.2489 148.595 44.0618V44.0637ZM148.39 45.9506C148.333 46.12 148.254 46.2737 148.151 46.4096C148.049 46.5455 147.917 46.6558 147.758 46.7385C147.598 46.8212 147.421 46.8626 147.23 46.8626C146.982 46.8626 146.759 46.7937 146.564 46.6577C146.369 46.5199 146.221 46.3446 146.123 46.1279C146.022 45.9113 145.973 45.6788 145.973 45.4307C145.973 45.2514 146.003 45.0781 146.06 44.9087C146.117 44.7393 146.2 44.5877 146.304 44.4518C146.408 44.3159 146.542 44.2075 146.702 44.1268C146.863 44.044 147.039 44.0047 147.23 44.0047C147.421 44.0047 147.584 44.044 147.742 44.1228C147.899 44.2016 148.031 44.306 148.136 44.4399C148.24 44.5719 148.325 44.7255 148.384 44.8969C148.445 45.0702 148.475 45.2475 148.475 45.4346C148.475 45.6217 148.447 45.7872 148.39 45.9566V45.9506Z" fill="white"/>
<path d="M143.164 46.5888C143.044 46.6892 142.92 46.7601 142.79 46.8015C142.662 46.8448 142.53 46.8645 142.394 46.8645C142.156 46.8645 141.939 46.7976 141.742 46.6636C141.545 46.5297 141.394 46.3524 141.287 46.1318C141.181 45.9112 141.126 45.6749 141.126 45.4208C141.126 45.2809 141.141 45.145 141.175 45.0091C141.208 44.8732 141.26 44.7452 141.33 44.6231C141.401 44.501 141.484 44.3926 141.583 44.302C141.679 44.2095 141.797 44.1366 141.933 44.0814C142.071 44.0263 142.219 43.9987 142.376 43.9987C142.475 43.9987 142.573 44.0086 142.668 44.0322C142.762 44.0539 142.857 44.0873 142.95 44.1326C143.044 44.1779 143.131 44.2429 143.21 44.3276C143.288 44.4123 143.355 44.5108 143.406 44.6231L143.893 44.2961C143.761 44.0361 143.566 43.8293 143.306 43.6737C143.046 43.5181 142.743 43.4393 142.398 43.4393C142.166 43.4393 141.947 43.4768 141.74 43.5516C141.535 43.6264 141.358 43.7269 141.208 43.8549C141.059 43.983 140.929 44.1307 140.82 44.2961C140.712 44.4635 140.629 44.6408 140.576 44.8279C140.523 45.017 140.495 45.2061 140.495 45.3971C140.495 45.6453 140.543 45.8915 140.635 46.1338C140.73 46.3761 140.856 46.5927 141.017 46.7838C141.179 46.9748 141.378 47.1285 141.614 47.2466C141.85 47.3648 142.103 47.4219 142.37 47.4219C142.581 47.4219 142.792 47.3884 143.001 47.3195C143.21 47.2506 143.403 47.1462 143.576 47.0024C143.751 46.8606 143.877 46.6951 143.954 46.508L143.438 46.2165C143.373 46.3623 143.28 46.4864 143.16 46.5848L143.164 46.5888Z" fill="white"/>
<path d="M181.224 43.463L179.683 47.3944H180.343L180.755 46.3269H182.271L182.685 47.3944H183.339L181.811 43.463H181.224ZM180.863 45.866L181.515 44.1445L182.147 45.866H180.863Z" fill="white"/>
<path d="M172.691 45.4543C172.691 45.602 172.681 45.7419 172.66 45.8719C172.64 46.0019 172.603 46.1299 172.549 46.252C172.496 46.3741 172.431 46.4805 172.352 46.5691C172.274 46.6578 172.171 46.7287 172.045 46.7818C171.919 46.835 171.777 46.8626 171.616 46.8626C171.454 46.8626 171.316 46.837 171.192 46.7838C171.068 46.7306 170.966 46.6617 170.887 46.575C170.808 46.4884 170.741 46.384 170.688 46.2619C170.635 46.1397 170.597 46.0117 170.576 45.8798C170.554 45.7478 170.544 45.606 170.544 45.4563V43.463H169.922V45.4563C169.922 45.667 169.94 45.866 169.977 46.0531C170.014 46.2402 170.075 46.4175 170.16 46.5888C170.245 46.7582 170.351 46.904 170.479 47.0261C170.607 47.1462 170.769 47.2427 170.962 47.3156C171.155 47.3885 171.373 47.4239 171.618 47.4239C171.911 47.4239 172.169 47.3727 172.392 47.2703C172.614 47.1679 172.792 47.0241 172.924 46.8409C173.056 46.6578 173.154 46.4509 173.219 46.2185C173.284 45.9861 173.316 45.734 173.316 45.4583V43.465H172.689V45.4583L172.691 45.4543Z" fill="white"/>
<path d="M140.299 5.70313C141.748 5.70313 142.912 4.53907 142.912 3.08154C142.912 1.62402 141.748 0.459961 140.299 0.459961C138.849 0.459961 137.671 1.62402 137.671 3.08154C137.671 4.53907 138.835 5.70313 140.299 5.70313ZM140.299 1.84658C140.955 1.84658 141.463 2.37642 141.463 3.08351C141.463 3.79061 140.955 4.32045 140.299 4.32045C139.643 4.32045 139.113 3.79061 139.113 3.08351C139.113 2.37642 139.629 1.84658 140.299 1.84658Z" fill="white"/>
<path d="M101.526 5.70311C102.911 5.70311 103.955 4.68678 103.955 3.12683V2.73684H101.164V3.80438H102.511C102.393 4.12937 102.054 4.39331 101.524 4.39331C100.766 4.39331 100.244 3.84772 100.244 3.09729C100.244 2.34685 100.766 1.76384 101.503 1.76384C101.973 1.76384 102.379 1.99232 102.6 2.39019L103.748 1.70672C103.285 0.934626 102.438 0.461914 101.516 0.461914C100.059 0.461914 98.8948 1.62597 98.8948 3.08941C98.8948 4.55285 100.051 5.70311 101.522 5.70311H101.526Z" fill="white"/>
<path d="M149.522 3.76104H150.996V2.62653H149.522V1.77959H151.754V0.580078H148.167V5.58492H149.522V3.76104Z" fill="white"/>
<path d="M115.609 5.58689L117.567 0.580078H116.117L114.939 3.66453L113.775 0.580078H112.326L114.262 5.58689H115.609Z" fill="white"/>
<path d="M173.101 3.85558H173.668L174.663 5.58492H176.158L175.047 3.65665C175.577 3.37696 175.923 2.84713 175.923 2.207C175.923 1.2793 175.173 0.580078 174.194 0.580078H171.771V5.58689H173.103V3.85755L173.101 3.85558ZM173.101 1.77959H174.042C174.365 1.77959 174.558 2.00018 174.558 2.25033C174.558 2.50047 174.359 2.71319 174.042 2.71319H173.101V1.77762V1.77959Z" fill="white"/>
<path d="M108.44 5.70313C109.889 5.70313 111.053 4.53907 111.053 3.08154C111.053 1.62402 109.889 0.459961 108.44 0.459961C106.99 0.459961 105.812 1.62402 105.812 3.08154C105.812 4.53907 106.976 5.70313 108.44 5.70313ZM108.44 1.84658C109.096 1.84658 109.604 2.37642 109.604 3.08351C109.604 3.79061 109.096 4.32045 108.44 4.32045C107.784 4.32045 107.254 3.79061 107.254 3.08351C107.254 2.37642 107.77 1.84658 108.44 1.84658Z" fill="white"/>
<path d="M164.157 3.08348C164.157 1.64762 163.008 0.580078 161.484 0.580078H159.445V5.58689H161.484C163.008 5.58689 164.157 4.51935 164.157 3.08348ZM160.806 4.28299V1.88201H161.417C162.213 1.88201 162.756 2.35275 162.756 3.08151C162.756 3.81028 162.211 4.28102 161.417 4.28102H160.806V4.28299Z" fill="white"/>
<path d="M157.362 4.36375H155.132V3.62119H156.603V2.54577H155.132V1.80125H157.362V0.580078H153.777V5.58492H157.362V4.36375Z" fill="white"/>
<path d="M181.72 5.58494H183.118L181.005 0.578125H179.725L177.633 5.58494H179.039L179.386 4.72421H181.366L181.718 5.58494H181.72ZM179.873 3.53258L180.373 2.30353L180.873 3.53258H179.873Z" fill="white"/>
<path d="M126.326 3.85558H126.893L127.888 5.58492H129.383L128.272 3.65665C128.802 3.37696 129.148 2.84713 129.148 2.207C129.148 1.2793 128.398 0.580078 127.419 0.580078H124.996V5.58689H126.33V3.85755L126.326 3.85558ZM126.326 1.77959H127.267C127.59 1.77959 127.783 2.00018 127.783 2.25033C127.783 2.50047 127.584 2.71319 127.267 2.71319H126.326V1.77762V1.77959Z" fill="white"/>
<path d="M169.686 4.36375H167.454V3.62119H168.927V2.54577H167.454V1.80125H169.686V0.580078H166.099V5.58492H169.686V4.36375Z" fill="white"/>
<path d="M132.57 2.94955L134.587 5.58689H135.727V0.580078H134.396V3.22333L132.371 0.580078H131.236V5.58689H132.57V2.94955Z" fill="white"/>
<path d="M122.911 4.36375H120.681V3.62119H122.152V2.54577H120.681V1.80125H122.911V0.580078H119.326V5.58492H122.911V4.36375Z" fill="white"/>
<path d="M186.299 0.580078H184.877V5.58492H188.405V4.29678H186.299V0.580078Z" fill="white"/>
<path d="M166.863 11.2456H157.468V20.365H166.863V11.2456Z" fill="white"/>
<path d="M156.999 37.1424V22.963H148.849V29.6401L153.312 37.1424H156.999Z" fill="white"/>
<path d="M156.999 22.4942V11.2437H154.474C151.372 11.2437 148.849 13.7668 148.849 16.8689C148.849 19.9711 151.372 22.4922 154.472 22.4942H156.999Z" fill="white"/>
<path d="M148.849 37.1425H152.766L148.849 30.5541V37.1425Z" fill="white"/>
<path d="M188.17 11.2456H179.522V28.2869H188.17V11.2456Z" fill="white"/>
<path d="M144.068 30.682C142.302 28.9467 139.968 27.9915 137.498 27.9915C135.028 27.9915 132.694 28.9467 130.927 30.682C129.174 32.4034 128.177 34.6961 128.116 37.1424H146.879C146.818 34.6961 145.821 32.4034 144.068 30.682Z" fill="white"/>
<path d="M160.245 20.8319H157.468V37.1425H160.245C164.742 37.1425 168.399 33.4848 168.399 28.9882C168.399 24.4915 164.742 20.8339 160.245 20.8339V20.8319Z" fill="white"/>
<path d="M137.498 27.5247C140.092 27.5247 142.544 28.5292 144.399 30.3512C146.241 32.1612 147.287 34.5721 147.348 37.1425H148.382V29.7681L137.498 11.4683L124.479 33.3608L126.937 37.1425H127.65C127.711 34.5721 128.757 32.1612 130.598 30.3512C132.454 28.5273 134.904 27.5247 137.5 27.5247H137.498Z" fill="white"/>
<path d="M197.288 28.7538H188.639V37.1405H197.288V28.7538Z" fill="white"/>
<path d="M177.517 11.2456H168.868V37.1424H177.517V11.2456Z" fill="white"/>
<path d="M127.746 18.9725C127.746 14.7122 124.279 11.2437 120.017 11.2437H110.102L120.143 26.6994C124.337 26.6324 127.744 23.1718 127.744 18.9725H127.746Z" fill="white"/>
<path d="M188.17 28.7538H179.522V37.1405H188.17V28.7538Z" fill="white"/>
<path d="M124.211 33.8098L122.229 37.1424H126.377L124.211 33.8098Z" fill="white"/>
<path d="M98.5481 21.8226H89.8994V37.1405H98.5481V21.8226Z" fill="white"/>
<path d="M99.0149 11.2456V21.3558H100.892C103.679 21.3558 105.948 19.0887 105.948 16.2997C105.948 13.5107 103.681 11.2437 100.892 11.2437H99.0149V11.2456Z" fill="white"/>
<path d="M109.905 26.7014H119.588L109.905 11.8011V26.7014Z" fill="white"/>
<path d="M119.891 27.1682H109.905V37.1424H121.683L123.927 33.3726L119.891 27.1682Z" fill="white"/>
<path d="M98.5481 11.2456H89.8994V21.3557H98.5481V11.2456Z" fill="white"/>
<path d="M101.778 21.8226H99.0149V37.1405H101.778C106.001 37.1405 109.438 33.7055 109.438 29.4806C109.438 25.2557 106.001 21.8207 101.778 21.8207V21.8226Z" fill="white"/>
<path d="M4.53553 21.0423V17.2527L2.96966 20.1283H2.47529L0.901548 17.2527V21.0423H0.0644531V15.7242H0.964578L2.72346 18.9761L4.48235 15.7242H5.38247V21.0423H4.53356H4.53553Z" fill="white"/>
<path d="M8.0791 21.0423V15.7242H8.9162V21.0423H8.0791Z" fill="white"/>
<path d="M12.4514 17.2822V21.0423H11.6143V15.7242H12.3017L15.3152 19.569V15.7321H16.1602V21.0442H15.4255L12.4514 17.2842V17.2822Z" fill="white"/>
<path d="M18.8569 21.0423V15.7242H19.694V21.0423H18.8569Z" fill="white"/>
<path d="M25.5376 16.975C25.4233 16.849 25.2283 16.7269 24.9526 16.6087C24.6768 16.4925 24.3932 16.4334 24.0997 16.4334C23.7531 16.4334 23.495 16.4964 23.3217 16.6244C23.1484 16.7525 23.0637 16.9337 23.0637 17.1681C23.0637 17.2409 23.0735 17.3079 23.0932 17.365C23.1129 17.4241 23.1385 17.4753 23.1681 17.5206C23.1996 17.5659 23.2449 17.6093 23.306 17.6506C23.367 17.692 23.4281 17.7274 23.4872 17.757C23.5463 17.7865 23.629 17.818 23.7314 17.8495C23.8338 17.8811 23.9323 17.9106 24.0229 17.9342C24.1135 17.9579 24.2317 17.9874 24.3774 18.0229C24.6118 18.08 24.8108 18.1351 24.9782 18.1903C25.1436 18.2454 25.3032 18.3144 25.4568 18.3991C25.6104 18.4838 25.7345 18.5763 25.8271 18.6807C25.9197 18.7851 25.9925 18.9112 26.0477 19.0589C26.1028 19.2066 26.1304 19.378 26.1304 19.5671C26.1304 19.7798 26.0969 19.9708 26.03 20.1422C25.963 20.3136 25.8704 20.4573 25.7542 20.5736C25.638 20.6898 25.4962 20.7882 25.3308 20.869C25.1653 20.9498 24.9861 21.0049 24.797 21.0404C24.6059 21.0758 24.4011 21.0935 24.1825 21.0935C23.7767 21.0935 23.3867 21.0325 23.0086 20.9084C22.6304 20.7843 22.2896 20.607 21.9883 20.3766L22.3724 19.6557C22.526 19.8152 22.7761 19.9669 23.1248 20.1146C23.4734 20.2624 23.8299 20.3352 24.1982 20.3352C24.5291 20.3352 24.7852 20.2761 24.9644 20.1599C25.1436 20.0437 25.2342 19.8743 25.2342 19.6557C25.2342 19.5671 25.2205 19.4883 25.1948 19.4174C25.1673 19.3465 25.122 19.2834 25.055 19.2263C24.988 19.1692 24.9211 19.12 24.8521 19.0786C24.7832 19.0372 24.6847 18.9939 24.5567 18.9506C24.4287 18.9072 24.3124 18.8698 24.2061 18.8403C24.0997 18.8107 23.9559 18.7733 23.7767 18.726C23.497 18.6532 23.2646 18.5783 23.0814 18.5035C22.8983 18.4286 22.7367 18.336 22.5969 18.2257C22.4571 18.1154 22.3546 17.9855 22.2916 17.8358C22.2286 17.6861 22.1971 17.5088 22.1971 17.304C22.1971 17.0479 22.2463 16.8175 22.3448 16.6106C22.4433 16.4038 22.5792 16.2344 22.7525 16.1005C22.9258 15.9666 23.1287 15.8642 23.3631 15.7932C23.5975 15.7223 23.8516 15.6869 24.1273 15.6869C24.7812 15.6869 25.38 15.8878 25.9236 16.2876L25.5435 16.975H25.5376Z" fill="white"/>
<path d="M32.3703 16.4668H30.6035V21.0423H29.7546V16.4668H27.98V15.7242H32.3703V16.4668Z" fill="white"/>
<path d="M38.2242 20.2998V21.0423H34.5764V15.7243H38.1572V16.4669H35.4135V17.9776H37.7869V18.6768H35.4135V20.3017H38.2222L38.2242 20.2998ZM36.7371 15.1748L36.1955 15.0113L36.6229 14.188H37.4088L36.7351 15.1748H36.7371Z" fill="white"/>
<path d="M40.5896 21.0423V15.7242H42.9059C43.1383 15.7242 43.3569 15.7735 43.5657 15.8739C43.7745 15.9744 43.9498 16.1064 44.0916 16.2698C44.2334 16.4333 44.3457 16.6185 44.4284 16.8253C44.5111 17.0321 44.5525 17.2428 44.5525 17.4536C44.5525 17.814 44.458 18.141 44.2669 18.4325C44.0759 18.724 43.8257 18.919 43.5125 19.0194L44.7633 21.0423H43.8198L42.6636 19.1908H41.4267V21.0423H40.5896ZM41.4287 18.4482H42.9C43.1324 18.4482 43.3235 18.3517 43.4751 18.1567C43.6268 17.9617 43.7016 17.7274 43.7016 17.4516C43.7016 17.1759 43.6169 16.9494 43.4456 16.7544C43.2742 16.5613 43.0772 16.4629 42.8527 16.4629H41.4306V18.4463L41.4287 18.4482Z" fill="white"/>
<path d="M47.0383 21.0423V15.7242H47.8754V21.0423H47.0383Z" fill="white"/>
<path d="M50.2371 18.3833C50.2371 18.0327 50.3021 17.692 50.4321 17.365C50.562 17.0361 50.7393 16.7505 50.9639 16.5043C51.1884 16.2581 51.4602 16.0611 51.7793 15.9114C52.0984 15.7637 52.4371 15.6888 52.7956 15.6888C53.1541 15.6888 53.5086 15.7676 53.8316 15.9232C54.1527 16.0788 54.4225 16.2856 54.6372 16.5397C54.8519 16.7938 55.0233 17.0833 55.1474 17.4064C55.2714 17.7294 55.3345 18.0583 55.3345 18.3912C55.3345 18.7418 55.2695 19.0806 55.1395 19.4075C55.0095 19.7345 54.8322 20.0201 54.6116 20.2663C54.389 20.5125 54.1192 20.7094 53.8001 20.8572C53.481 21.0049 53.1423 21.0778 52.7838 21.0778C52.4864 21.0778 52.2028 21.0285 51.9349 20.93C51.667 20.8316 51.4307 20.6957 51.2278 20.5223C51.0249 20.349 50.8476 20.1501 50.6979 19.9216C50.5483 19.6931 50.434 19.4489 50.3552 19.1849C50.2764 18.921 50.239 18.6531 50.239 18.3813L50.2371 18.3833ZM52.7897 20.3214C53.0477 20.3214 53.286 20.2643 53.5027 20.154C53.7194 20.0417 53.8986 19.894 54.0365 19.7089C54.1763 19.5257 54.2827 19.3189 54.3595 19.0884C54.4363 18.858 54.4737 18.6236 54.4737 18.3833C54.4737 18.143 54.4324 17.8909 54.3516 17.6565C54.2689 17.4241 54.1586 17.2173 54.0148 17.038C53.873 16.8588 53.6938 16.717 53.481 16.6106C53.2683 16.5043 53.0359 16.4511 52.7877 16.4511C52.5396 16.4511 52.2914 16.5062 52.0727 16.6165C51.8541 16.7268 51.6749 16.8746 51.5331 17.0577C51.3913 17.2409 51.281 17.4458 51.2041 17.6762C51.1273 17.9067 51.0879 18.141 51.0879 18.3813C51.0879 18.7181 51.1549 19.0333 51.2908 19.3248C51.4267 19.6183 51.6256 19.8566 51.8896 20.0417C52.1535 20.2269 52.4529 20.3195 52.7897 20.3195V20.3214Z" fill="white"/>
<path d="M61.0503 21.0423V15.7242H62.9372C63.3548 15.7242 63.729 15.7932 64.0619 15.9311C64.3947 16.0689 64.6665 16.26 64.8793 16.5022C65.092 16.7445 65.2535 17.0262 65.3638 17.3433C65.4741 17.6624 65.5292 18.0051 65.5292 18.3773C65.5292 19.1829 65.2929 19.827 64.8221 20.3135C64.3494 20.8 63.7211 21.0442 62.9372 21.0442H61.0503V21.0423ZM62.9392 16.4668H61.8894V20.2997H62.9392C63.3055 20.2997 63.6207 20.215 63.8846 20.0456C64.1485 19.8762 64.3475 19.6478 64.4794 19.3602C64.6114 19.0726 64.6764 18.7437 64.6764 18.3754C64.6764 17.8081 64.5228 17.3472 64.2135 16.9947C63.9043 16.6421 63.4808 16.4668 62.9392 16.4668Z" fill="white"/>
<path d="M69.2538 15.7242H70.0476L72.1137 21.0423H71.2274L70.668 19.5965H68.6157L68.0602 21.0423H67.168L69.2538 15.7242ZM70.5065 18.9761L69.6497 16.646L68.7673 18.9761H70.5045H70.5065Z" fill="white"/>
<path d="M44.9524 27.9778C44.9307 27.966 44.9012 27.9482 44.8638 27.9266C44.8263 27.9049 44.7535 27.8655 44.6412 27.8104C44.5289 27.7532 44.4186 27.704 44.3123 27.6626C44.2059 27.6213 44.0798 27.5799 43.938 27.5464C43.7962 27.511 43.6642 27.4933 43.5441 27.4933C43.2585 27.4933 43.1167 27.5819 43.1167 27.7572C43.1167 27.7966 43.1226 27.832 43.1364 27.8635C43.1502 27.8951 43.1738 27.9246 43.2073 27.9522C43.2408 27.9798 43.2743 28.0014 43.3077 28.0211C43.3412 28.0408 43.3905 28.0625 43.4594 28.0861C43.5283 28.1097 43.5855 28.1294 43.6347 28.1452C43.6839 28.161 43.7568 28.1826 43.8573 28.2122C43.9577 28.2437 44.0385 28.2673 44.1015 28.287C44.3162 28.352 44.4974 28.417 44.6491 28.48C44.7988 28.5431 44.9445 28.6199 45.0863 28.7125C45.2281 28.8031 45.3404 28.9035 45.4271 29.0138C45.5118 29.1241 45.5807 29.2561 45.63 29.4097C45.6792 29.5653 45.7048 29.7386 45.7048 29.9356C45.7048 30.1818 45.6654 30.4044 45.5886 30.6013C45.5118 30.7983 45.4074 30.9598 45.2793 31.0859C45.1513 31.2119 44.9977 31.3163 44.8204 31.399C44.6432 31.4818 44.46 31.5409 44.2729 31.5743C44.0858 31.6078 43.8888 31.6255 43.682 31.6255C43.2999 31.6255 42.8981 31.5684 42.4785 31.4562C42.059 31.3419 41.6887 31.1922 41.3696 31.0051L41.9999 29.7249C42.0236 29.7426 42.057 29.7642 42.1004 29.7898C42.1437 29.8155 42.2304 29.8627 42.3643 29.9297C42.4982 29.9967 42.6282 30.0557 42.7582 30.107C42.8882 30.1582 43.0399 30.2054 43.2171 30.2468C43.3944 30.2901 43.5579 30.3118 43.7096 30.3118C43.9932 30.3118 44.133 30.233 44.133 30.0774C44.133 30.0183 44.1153 29.9671 44.0779 29.9218C44.0405 29.8765 43.9794 29.8352 43.8947 29.7977C43.81 29.7603 43.7273 29.7288 43.6485 29.7032C43.5697 29.6776 43.4574 29.6441 43.3117 29.6008C43.1659 29.5574 43.0458 29.52 42.9512 29.4885C42.4726 29.327 42.1279 29.134 41.9172 28.9094C41.7064 28.6829 41.6001 28.3796 41.6001 27.9975C41.6001 27.7119 41.6552 27.4539 41.7636 27.2214C41.8719 26.989 42.0176 26.7999 42.2028 26.6542C42.3879 26.5084 42.5967 26.3962 42.8331 26.3174C43.0694 26.2386 43.3215 26.2012 43.5874 26.2012C44.1547 26.2012 44.8204 26.3922 45.5807 26.7763L44.9524 27.9837V27.9778Z" fill="white"/>
<path d="M48.943 26.2385H50.5738L52.2677 31.5565H50.7866L50.4655 30.5146H49.0454L48.7303 31.5565H47.2412L48.943 26.2385ZM50.2291 29.5416L49.7564 27.6685L49.2621 29.5416H50.2272H50.2291Z" fill="white"/>
<path d="M56.3309 31.602C56 31.602 55.6987 31.5567 55.4288 31.4621C55.159 31.3676 54.9325 31.2435 54.7473 31.082C54.5642 30.9205 54.4086 30.7294 54.2845 30.5049C54.1604 30.2803 54.0698 30.04 54.0127 29.786C53.9556 29.5319 53.928 29.2601 53.928 28.9725V26.2406H55.3914V28.9725C55.3914 29.1557 55.4091 29.3251 55.4446 29.4807C55.4801 29.6363 55.5332 29.7781 55.6061 29.9041C55.677 30.0302 55.7755 30.1287 55.8996 30.1996C56.0237 30.2705 56.1655 30.3079 56.329 30.3079C56.4924 30.3079 56.6402 30.2705 56.7642 30.1976C56.8883 30.1247 56.9868 30.0243 57.0597 29.8963C57.1326 29.7682 57.1857 29.6264 57.2212 29.4728C57.2567 29.3172 57.2744 29.1517 57.2744 28.9725V26.2406H58.7339V28.9725C58.7339 29.3507 58.6846 29.6973 58.5881 30.0105C58.4896 30.3256 58.3459 30.6014 58.1548 30.8417C57.9638 31.08 57.7116 31.2671 57.4004 31.4011C57.0892 31.535 56.7327 31.602 56.3309 31.602ZM56.78 26.0121L55.8799 25.7738L56.2521 24.7102H57.5186L56.78 26.0121Z" fill="white"/>
<path d="M61.0701 31.5586V26.2406H63.1145C63.5439 26.2406 63.93 26.3095 64.2766 26.4474C64.6233 26.5853 64.903 26.7763 65.1216 27.0186C65.3402 27.2609 65.5077 27.5425 65.6219 27.8596C65.7381 28.1787 65.7952 28.5214 65.7952 28.8937C65.7952 29.6993 65.551 30.3433 65.0625 30.8298C64.574 31.3163 63.9241 31.5606 63.1145 31.5606H61.0701V31.5586ZM63.1145 27.513H62.5296V30.2862H63.1145C63.4868 30.2862 63.7803 30.1562 63.995 29.8982C64.2097 29.6402 64.3141 29.3054 64.3141 28.8917C64.3141 28.4781 64.2077 28.1413 63.993 27.8892C63.7783 27.639 63.4848 27.513 63.1145 27.513Z" fill="white"/>
<path d="M71.7198 30.2842V31.5565H67.9302V26.2385H71.6548V27.5109H69.3897V28.2613H71.3258V29.4431H69.3897V30.2842H71.7198Z" fill="white"/>
</svg>
