<svg width="102" height="49" viewBox="0 0 102 49" fill="none" xmlns="http://www.w3.org/2000/svg">
<g clip-path="url(#clip0_587_1413)">
<path d="M23.0169 43.6423C22.986 43.256 22.9283 42.8724 22.8443 42.4941C22.6121 41.223 22.0995 40.0197 21.3439 38.9716C20.5882 37.9235 19.6085 37.057 18.4759 36.4351C17.8547 36.1027 17.1619 35.9265 16.4573 35.9218C15.7528 35.9172 15.0578 36.0841 14.4322 36.4082C13.8678 36.7957 13.3367 37.2296 12.8445 37.7054C12.3485 38.1868 11.7011 38.4814 11.0124 38.5394C10.5902 38.5199 10.1745 38.4274 9.78385 38.2661C8.45053 37.859 7.09278 37.5367 5.71874 37.3012C4.54543 37.0063 3.32015 36.9847 2.13716 37.238C1.71004 37.3227 1.32604 37.5545 1.05218 37.893C0.882608 38.1704 0.78197 38.4843 0.75852 38.8085C0.677436 39.1449 0.670824 39.495 0.739152 39.8342C0.807481 40.1735 0.949119 40.4937 1.15412 40.7725C1.49362 41.0785 1.9064 41.2916 2.35256 41.391C4.20453 42.0485 6.11881 42.5154 8.0655 42.7846C9.68328 42.833 11.2606 43.3011 12.6429 44.1429C14.8631 45.5194 16.6846 46.7501 19.4279 46.8305C19.9967 46.9035 20.5747 46.8412 21.1149 46.6488C21.6551 46.4564 22.1421 46.1392 22.5367 45.7231C22.9433 45.1116 23.1157 44.3739 23.0223 43.6455" fill="white"/>
<path d="M13.3654 23.1076C13.3585 23.0337 13.34 22.9614 13.3106 22.8932C12.7318 21.6068 11.5365 20.5176 10.8858 19.2205C10.2736 18.0026 9.81378 16.7119 9.21452 15.4877C7.96206 13.3691 6.54809 11.3502 4.9853 9.44892C4.77182 9.12124 4.50227 8.83383 4.18887 8.59988C3.11684 7.89663 1.55803 8.75856 1.15495 9.97852C1.01215 10.6054 0.99686 11.2547 1.10993 11.8876C1.22301 12.5206 1.46215 13.1244 1.81319 13.6631C3.13593 15.7242 4.7529 17.5809 6.61271 19.1744C7.40586 19.805 8.10825 20.542 8.69997 21.3645C9.21094 22.5173 9.82786 23.6202 10.5428 24.6589C11.5912 25.7716 11.4765 23.8849 12.5882 23.7069C12.7722 23.7081 12.9552 23.6802 13.1306 23.6244C13.2166 23.5709 13.2848 23.4932 13.3267 23.4011C13.3687 23.309 13.3825 23.2065 13.3664 23.1066" fill="white"/>
<path d="M19.1879 20.464C19.2548 20.5398 19.3264 20.6114 19.4022 20.6784C19.9993 21.2144 21.318 20.7524 21.7511 20.1424C22.0335 19.6097 22.1128 18.9925 21.9741 18.4057C21.7211 16.1566 21.4669 13.9053 21.2118 11.6519C20.8151 8.13139 21.127 4.48327 19.0977 1.36046C18.8889 1.09187 18.6242 0.871988 18.3218 0.716059C18.0194 0.560131 17.6867 0.471924 17.3468 0.45754C17.0068 0.443156 16.6678 0.50294 16.3534 0.632765C16.0389 0.762591 15.7566 0.95933 15.5258 1.20931C14.547 2.16878 14.6832 3.75752 14.9179 5.10935C15.7037 9.47551 16.7504 13.7907 18.0525 18.0316C18.2583 18.9116 18.6462 19.7387 19.191 20.4597" fill="white"/>
<path d="M27.008 20.0277C27.2003 20.2712 27.4387 20.4744 27.7097 20.6256C27.9807 20.7768 28.2788 20.8731 28.587 20.9089C29.5518 20.9239 29.9561 19.8519 30.1287 19.0736C30.8484 15.816 31.4418 12.5353 31.9092 9.23128C32.1715 7.706 32.2707 6.15713 32.2051 4.61085C32.1989 4.01314 32.034 3.42782 31.7271 2.9149C31.5026 2.6295 31.2217 2.39353 30.9018 2.22179C30.582 2.05005 30.23 1.94623 29.8682 1.91685C29.2477 1.76601 28.5955 1.81553 28.0049 2.05834C27.0251 2.56434 27.2803 4.58835 27.3617 5.44382C27.485 6.82888 27.3886 8.19572 27.4561 9.58399C27.5791 12.1202 27.3657 14.6616 26.8214 17.1418C26.5851 17.8749 26.5314 18.6548 26.6649 19.4134C26.7362 19.6398 26.8538 19.849 27.0101 20.0277" fill="white"/>
<path d="M34.1863 22.0345C34.1817 22.0442 34.1777 22.0542 34.1745 22.0645C34.1131 22.1788 34.0769 22.3049 34.0684 22.4343C34.0599 22.5638 34.0792 22.6936 34.1252 22.8149C34.2472 22.9721 34.4186 23.0835 34.6118 23.1311C35.086 23.3677 35.6347 23.4063 36.1373 23.2383C36.9799 22.831 37.3552 21.1618 37.6092 20.3546C38.018 19.0553 38.3897 17.7471 38.7242 16.4299C39.2758 14.7438 39.7018 13.0192 39.9988 11.2702C40.0514 10.922 40.0514 10.5679 39.9988 10.2197C39.7769 9.12621 37.7378 7.59536 36.7623 8.77351C36.5616 9.0779 36.4581 9.43599 36.4654 9.80049C36.2554 13.9614 35.491 18.0757 34.1927 22.0345" fill="white"/>
<path d="M34.1692 24.2644C33.6644 24.0963 33.1422 23.9856 32.6126 23.9342C32.1896 23.9416 31.7674 23.8973 31.3551 23.8023C31.0986 23.6984 30.8509 23.574 30.6143 23.4303C29.582 22.994 28.5125 22.6517 27.4187 22.4076C26.9252 22.28 26.4549 22.0756 26.025 21.8019C25.5962 21.4803 25.3754 20.8821 25.013 20.4865C24.9882 20.4509 24.9564 20.4206 24.9196 20.3976C24.8827 20.3746 24.8416 20.3592 24.7987 20.3525C24.67 20.3525 24.5842 20.478 24.5166 20.5873C23.9981 21.4486 23.1808 22.0889 22.2204 22.3862C21.959 22.4483 21.703 22.5315 21.455 22.6349C20.9404 22.889 20.7892 23.2373 20.1396 23.1591C19.9903 23.1477 19.8479 23.0918 19.7306 22.9988C19.6133 22.9058 19.5264 22.7798 19.4813 22.637C19.4427 22.4494 19.5038 22.2511 19.4642 22.0635C19.429 21.9431 19.3626 21.8341 19.2717 21.7477C19.1807 21.6613 19.0685 21.6004 18.9465 21.5714C18.7014 21.518 18.4475 21.518 18.2024 21.5714C17.5001 21.6851 16.8185 21.9018 16.1795 22.2146C16.0583 22.265 15.9505 22.3428 15.8644 22.4419C15.8004 22.5679 15.7643 22.7062 15.7588 22.8474C15.7532 22.9886 15.7783 23.1293 15.8322 23.2599C15.9165 23.5428 15.9356 23.8412 15.888 24.1325C15.862 24.2775 15.798 24.4129 15.7025 24.525C15.607 24.637 15.4833 24.7217 15.3444 24.7704C15.1135 24.805 14.878 24.7908 14.653 24.7286C13.2508 24.5034 11.7038 25.4575 12.228 27.0216C12.4036 27.5401 12.4984 28.0824 12.509 28.6297C12.529 28.8604 12.4863 29.0922 12.3855 29.3007C12.1518 29.7017 11.6062 29.7842 11.2685 30.1026C11.1263 30.2524 11.0214 30.4334 10.962 30.6311C10.9026 30.8289 10.8904 31.0378 10.9266 31.2411C11.0032 31.6473 11.1634 32.0332 11.3971 32.3742C11.6121 32.7471 11.892 33.0786 12.2237 33.353C12.6438 33.6622 13.1536 33.8256 13.6752 33.8182C14.1968 33.8109 14.7016 33.6332 15.1129 33.3123C15.3476 33.1193 15.5878 32.8663 15.889 32.8909C16.1209 32.9392 16.3261 33.0732 16.4636 33.2662C16.7319 33.6463 17.0874 33.9565 17.5003 34.1709C17.9675 34.3567 18.4551 34.4862 18.9529 34.5569C19.304 34.5466 19.6545 34.5914 19.9917 34.6898C20.5663 34.9492 20.7474 35.6964 21.2609 36.062C21.4753 36.2153 21.7369 36.2903 21.9599 36.4308C22.298 36.7266 22.5617 37.0981 22.7293 37.515C22.897 37.9318 22.9639 38.3824 22.9247 38.83C22.9043 39.0486 22.9321 39.2691 23.0062 39.4758C23.0803 39.6825 23.1989 39.8705 23.3535 40.0264C23.6799 40.1902 24.044 40.2643 24.4084 40.2408C24.861 40.2906 25.2921 40.4605 25.657 40.7328C26.0219 41.0052 26.3073 41.3701 26.4838 41.7899C26.649 42.2144 26.6976 42.6754 26.6245 43.125C26.5513 43.5746 26.3591 43.9964 26.0679 44.3466C25.8646 44.5481 25.6789 44.7665 25.5126 44.9995C25.4313 45.1178 25.3864 45.2573 25.3837 45.4009C25.3811 45.5444 25.4207 45.6855 25.4976 45.8067C25.7195 46.0855 26.1407 46.0501 26.4838 46.1423C26.6712 46.193 26.8445 46.2863 26.99 46.4149C27.1354 46.5436 27.2491 46.7042 27.3222 46.8841C27.4294 47.1564 27.4669 47.5016 27.7253 47.6474C28.2323 47.6324 28.5743 47.1371 28.8305 46.6954C29.3663 45.9373 29.8263 45.1283 30.2038 44.2802C30.4086 43.6541 30.4182 42.9369 30.6058 42.2916C30.6959 41.9185 30.8328 41.5583 31.0132 41.2195C31.4152 40.6238 31.9844 40.1602 32.6491 39.887C33.2923 39.5804 33.9752 39.351 34.5873 38.9897C34.8465 38.8506 35.0713 38.6553 35.2456 38.4183C35.3803 38.1899 35.4773 37.9412 35.5328 37.6819C35.6572 37.222 35.7816 36.7631 35.9048 36.3032C36.0459 35.8362 36.1494 35.3587 36.2146 34.8753C36.2143 34.0511 36.2645 33.2277 36.3647 32.4096C36.6955 31.4629 37.1742 30.5746 37.783 29.7778C38.3164 29.0304 38.5428 28.1068 38.4154 27.1974C38.2257 26.2873 37.918 25.3182 37.0015 25.0126C36.3132 24.7854 35.5961 24.7039 34.896 24.4938C34.6559 24.423 34.4168 24.3448 34.1767 24.2719" fill="white"/>
<path d="M48.8026 25.3417C47.8394 25.345 46.8834 25.1754 45.9801 24.8411C45.0578 24.4915 44.2107 23.969 43.4844 23.3017L44.8319 21.6936C45.3955 22.1912 46.0276 22.6053 46.709 22.9232C47.385 23.2171 48.116 23.3633 48.853 23.352C49.4349 23.3829 50.0118 23.2299 50.5019 22.9147C50.694 22.788 50.8508 22.6146 50.9577 22.4108C51.0645 22.207 51.1179 21.9794 51.1129 21.7494V21.7118C51.1164 21.5027 51.0755 21.2951 50.9929 21.1029C50.8927 20.9014 50.7424 20.729 50.5565 20.6023C50.2863 20.4152 49.9906 20.2679 49.6785 20.1649C49.2036 20.0019 48.7192 19.868 48.228 19.764C47.611 19.6262 47.004 19.4472 46.411 19.228C45.9315 19.056 45.4818 18.81 45.0784 18.499C44.7245 18.2204 44.4423 17.8613 44.2552 17.4516C44.0552 16.979 43.9587 16.4691 43.9721 15.9561V15.9208C43.9652 15.4027 44.0751 14.8897 44.2938 14.4199C44.5054 13.9719 44.8102 13.5743 45.1878 13.2536C45.5928 12.9175 46.0576 12.661 46.5578 12.4978C47.1206 12.3116 47.7104 12.2196 48.3031 12.2255C49.1619 12.2123 50.0162 12.3509 50.8267 12.635C51.5876 12.9161 52.2978 13.3187 52.9299 13.8271L51.7271 15.522C51.1938 15.1254 50.6124 14.798 49.9969 14.5475C49.4466 14.3271 48.8594 14.2129 48.2666 14.2109C47.7215 14.1774 47.1814 14.3314 46.7358 14.6472C46.5667 14.7702 46.429 14.9314 46.334 15.1177C46.239 15.304 46.1894 15.5101 46.189 15.7192V15.7557C46.1854 15.9766 46.2286 16.1958 46.3156 16.3989C46.4208 16.6083 46.5822 16.7842 46.7819 16.907C47.0725 17.0889 47.3853 17.233 47.7124 17.3358C48.1101 17.4709 48.6129 17.6103 49.2197 17.755C49.8251 17.9035 50.42 18.0922 51.0003 18.3199C51.4687 18.4974 51.9037 18.753 52.2867 19.0757C52.6181 19.3604 52.883 19.7143 53.0629 20.1124C53.2476 20.5473 53.3382 21.0164 53.3288 21.4889V21.5242C53.3378 22.0763 53.2235 22.6235 52.9943 23.1258C52.7783 23.5912 52.4602 24.002 52.0637 24.3276C51.6413 24.6709 51.1543 24.9261 50.6316 25.078C50.0344 25.2521 49.415 25.3377 48.7931 25.3321" fill="white"/>
<path d="M57.6027 12.412V25.1616H55.3804V12.412H57.6027ZM57.5094 8.36829L59.5141 9.25913L57.2918 11.3549H55.5765L57.5094 8.36829Z" fill="white"/>
<path d="M60.2935 12.4109H69.7637V14.4316H62.5158V17.9479H68.9479V19.9729H62.5158V25.1626H60.2935V12.4109Z" fill="white"/>
<path d="M89.4528 12.4098H87.2305V25.1594H89.4528V12.4098Z" fill="white"/>
<path d="M96.6278 25.3417C95.6646 25.345 94.7086 25.1754 93.8053 24.8411C92.8829 24.4916 92.0358 23.9691 91.3096 23.3016L92.6571 21.6936C93.22 22.1911 93.8514 22.6052 94.5321 22.9232C95.2099 23.2175 95.9427 23.3637 96.6815 23.352C97.2634 23.3829 97.8402 23.2299 98.3302 22.9146C98.522 22.7876 98.6787 22.6142 98.7855 22.4105C98.8923 22.2068 98.946 21.9793 98.9413 21.7493V21.7118C98.9448 21.5026 98.9038 21.2951 98.8212 21.1029C98.72 20.9015 98.569 20.7292 98.3827 20.6023C98.113 20.4157 97.8182 20.2684 97.507 20.1649C97.0319 20.0024 96.5475 19.8685 96.0565 19.764C95.4376 19.6264 94.8287 19.4474 94.234 19.2279C93.7548 19.0553 93.3053 18.8094 92.9015 18.499C92.5483 18.22 92.2665 17.8609 92.0793 17.4516C91.8798 16.9789 91.7836 16.469 91.7973 15.9561V15.9208C91.7907 15.4027 91.9007 14.8898 92.119 14.4199C92.3305 13.9716 92.6357 13.5739 93.0141 13.2535C93.4185 12.9179 93.8825 12.6615 94.382 12.4977C94.9455 12.3116 95.5359 12.2196 96.1294 12.2255C96.9881 12.2124 97.8424 12.351 98.6529 12.635C99.4135 12.9162 100.123 13.3187 100.755 13.8271L99.5544 15.5219C99.0207 15.1249 98.4386 14.7974 97.8221 14.5475C97.2725 14.3269 96.6862 14.2127 96.094 14.2109C95.5489 14.1775 95.0087 14.3314 94.5631 14.6472C94.3942 14.7703 94.2568 14.9316 94.162 15.1179C94.0672 15.3042 94.0177 15.5102 94.0175 15.7192V15.7556C94.0143 15.9765 94.0573 16.1956 94.1439 16.3989C94.2484 16.6088 94.4101 16.7849 94.6103 16.907C94.9008 17.0892 95.2136 17.2333 95.5409 17.3358C95.9365 17.4709 96.438 17.6103 97.048 17.755C97.6535 17.9036 98.2483 18.0923 98.8287 18.3199C99.2969 18.4978 99.7319 18.7533 100.115 19.0757C100.446 19.3607 100.711 19.7144 100.891 20.1123C101.076 20.5473 101.167 21.0164 101.157 21.4889V21.5242C101.166 22.0763 101.052 22.6235 100.823 23.1258C100.606 23.5907 100.288 24.0013 99.8922 24.3276C99.4697 24.6709 98.9827 24.9261 98.4599 25.078C97.8628 25.2521 97.2434 25.3377 96.6214 25.3321" fill="white"/>
<path d="M78.7794 23.1365V12.4098H76.5581V23.159L80.2287 24.2493C80.159 24.5709 80.0894 24.871 80.0143 25.1594H85.4816V23.1365H78.7794Z" fill="white"/>
<path d="M72.3143 24.0016C72.7785 24.1742 73.2116 24.3232 73.6093 24.4615C73.6972 24.4926 73.7819 24.5194 73.8634 24.5409V12.4098H71.6411V23.7733C71.8716 23.8451 72.0956 23.9212 72.3143 24.0006" fill="white"/>
<path d="M100.602 33.6071C100.063 32.3442 99.2814 31.1997 98.301 30.2388C97.2966 29.2629 96.1122 28.4915 94.8137 27.9671C93.4181 27.4012 91.9243 27.1174 90.4184 27.132C88.9125 27.1174 87.4187 27.4013 86.0231 27.9671C84.7151 28.4965 83.5212 29.2729 82.5068 30.2538C81.5117 31.219 80.72 32.3738 80.1784 33.65C79.6876 34.7967 79.4087 36.0229 79.3551 37.2691L76.5572 30.6493C76.1294 30.8005 75.6782 30.8749 75.2246 30.8691C74.7007 30.8687 74.1791 30.7991 73.6733 30.6622C73.1598 30.5271 72.672 30.3749 72.2057 30.2034C71.7394 30.0319 71.3074 29.8818 70.9097 29.7413C70.5873 29.6195 70.2474 29.5503 69.9031 29.5366C69.7089 29.5205 69.5136 29.5473 69.3309 29.6151C69.1483 29.6829 68.9826 29.7901 68.8459 29.9289C68.553 30.2807 68.3149 30.6746 68.1396 31.0974L63.0838 43.057V27.5437H57.4879V38.3819L49.0339 27.5437H43.7188V48.0451H49.3147V36.8006L58.0936 48.0505H66.9507L68.415 44.3884H76.3266L77.82 48.0505H83.9133L82.9603 45.7992C83.8558 46.5671 84.8694 47.1854 85.962 47.6302C87.3577 48.1955 88.8515 48.4789 90.3573 48.4643C91.8631 48.4791 93.3569 48.1956 94.7526 47.6302C96.0593 47.1006 97.2523 46.3251 98.2667 45.3458C99.2628 44.3796 100.055 43.2237 100.597 41.9463C101.155 40.6363 101.439 39.2258 101.43 37.8019V37.7429C101.442 36.3219 101.16 34.9139 100.602 33.6071ZM70.0895 39.9942L72.4041 34.1645L74.6886 39.9942H70.0895ZM95.6348 37.8555C95.6389 38.576 95.5092 39.291 95.2522 39.9642C95.0116 40.6057 94.6532 41.1966 94.1952 41.7062C93.7356 42.2115 93.1759 42.6156 92.5517 42.893C91.8768 43.1915 91.1456 43.3414 90.4077 43.3325C89.668 43.3413 88.9357 43.1857 88.2636 42.8769C87.6343 42.5878 87.0697 42.1751 86.6031 41.6634C86.1403 41.1489 85.7769 40.5531 85.5311 39.9063C85.2755 39.2321 85.1465 38.5165 85.1505 37.7955V37.7365C85.1467 37.0174 85.2711 36.3033 85.5181 35.6278C85.7514 34.9825 86.1108 34.39 86.5752 33.8847C87.0397 33.3843 87.599 32.9813 88.2207 32.6991C88.8897 32.3986 89.6165 32.2486 90.3498 32.2595C91.0894 32.2494 91.822 32.4047 92.4939 32.7141C93.1264 33.0056 93.6956 33.4183 94.1694 33.9287C94.6408 34.4399 95.0092 35.0372 95.2543 35.6879C95.5116 36.3609 95.6415 37.076 95.6371 37.7966L95.6348 37.8555Z" fill="white"/>
<path d="M68.8516 28.9694C68.9881 28.8303 69.1536 28.723 69.3363 28.6552C69.519 28.5874 69.7144 28.5607 69.9086 28.5771C70.2524 28.5907 70.5918 28.6591 70.9141 28.7797C71.3122 28.9169 71.7445 29.0709 72.2112 29.2417C72.6779 29.4126 73.1665 29.5658 73.6768 29.7016C74.1826 29.8377 74.7042 29.9065 75.228 29.9064C75.7513 29.9344 76.2735 29.8341 76.7492 29.6141C77.2248 29.3942 77.6397 29.0614 77.9574 28.6446C78.7214 27.4911 79.2328 26.189 79.4581 24.8239L76.3547 23.9663C76.1867 24.3912 75.9561 24.7887 75.6707 25.1455C75.5341 25.2844 75.3685 25.3916 75.1859 25.4594C75.0032 25.5272 74.8079 25.554 74.6137 25.5379C74.2697 25.5237 73.9302 25.4542 73.6082 25.3321C73.2105 25.197 72.7795 25.0426 72.3121 24.8732C71.8447 24.7038 71.3473 24.5516 70.8284 24.4112C70.3276 24.2775 69.8116 24.2087 69.2933 24.2064C68.77 24.179 68.248 24.2796 67.7724 24.4994C67.2968 24.7193 66.8819 25.0518 66.5639 25.4682C65.8 26.6218 65.2885 27.9238 65.063 29.2889L68.1665 30.1465C68.336 29.7228 68.5669 29.3262 68.8516 28.9694Z" fill="white"/>
</g>
<defs>
<clipPath id="clip0_587_1413">
<rect width="100.723" height="48" fill="white" transform="translate(0.712402 0.459961)"/>
</clipPath>
</defs>
</svg>
