<svg width="94" height="49" viewBox="0 0 94 49" fill="none" xmlns="http://www.w3.org/2000/svg">
<path fill-rule="evenodd" clip-rule="evenodd" d="M20.6267 33.5771C17.0136 33.5771 14.1934 31.0153 14.1934 27.8399V17.0186H19.0408V28.2848C19.0408 29.7021 20.2751 30.8395 21.861 30.8395C23.3571 30.8395 24.6919 29.7021 24.6919 28.2848V17.0186H26.9774V27.8399C26.9774 31.0153 24.1573 33.5771 20.6267 33.5771ZM6.95289 27.047L3.95334 26.1643C2.10912 25.5472 0.785156 23.6994 0.785156 21.6722C0.785156 19.0207 2.90206 16.9253 5.54641 16.9253H11.4594V19.0207H7.31169C6.51875 19.0207 5.8155 19.6342 5.8155 20.524C5.8155 21.0515 6.16354 21.6722 6.78067 21.8408L9.68694 22.8132C11.6352 23.4339 12.6865 25.4539 12.6865 27.7502C12.6865 30.6601 10.4009 33.0425 7.48392 33.0425H1.23007V30.6565H6.60845C7.39422 30.6565 8.28045 29.8707 8.28045 28.8159C8.28045 28.0121 7.74943 27.3125 6.94931 27.0434M34.4835 27.047L31.4767 26.1643C29.5321 25.5472 28.2224 23.6994 28.2224 21.6722C28.2224 19.0207 30.325 16.9253 32.9837 16.9253H38.8859V19.0207H34.7418C33.9417 19.0207 33.242 19.6342 33.242 20.524C33.242 21.0515 33.5901 21.6722 34.218 21.8408L37.1242 22.8132C39.1514 23.4339 40.2171 25.4539 40.2171 27.7502C40.2171 30.6601 37.8275 33.0425 34.914 33.0425H28.6566V30.6565H34.035C34.8279 30.6565 35.7141 29.8707 35.7141 28.8159C35.7141 28.0121 35.2692 27.3125 34.4835 27.0434" fill="white"/>
<path fill-rule="evenodd" clip-rule="evenodd" d="M75.3973 32.9706H77.2989V45.1303C77.0657 43.8673 76.3517 36.4653 76.445 34.0973C76.2046 33.8533 75.3973 32.9706 75.3973 32.9706ZM61.1459 19.9858L59.1115 17.9155C56.399 17.9514 47.6658 17.0257 44.8672 16.5377V32.1741C58.8783 33.5555 66.2372 33.9071 74.4429 33.6452H74.5793L61.1459 19.9858ZM61.2463 15.6264H76.9007V0.459961H61.2463V15.6264ZM49.1046 16.5341C50.1415 16.6202 59.3052 17.4239 59.9188 17.4239L74.425 32.1705H93.0645V16.5341H49.1046ZM75.4691 34.4955C75.4691 34.4955 67.1055 35.066 59.9941 34.4202C60.1376 43.0672 61.1817 47.5127 61.3504 48.46H76.8971C76.1544 43.914 75.5659 36.573 75.4691 34.4955Z" fill="white"/>
</svg>
