<svg width="169" height="49" viewBox="0 0 169 49" fill="none" xmlns="http://www.w3.org/2000/svg">
<path fill-rule="evenodd" clip-rule="evenodd" d="M9.84983 41.53H10.4805L9.97219 44.6551C9.94395 44.7778 9.93455 44.9006 9.92514 45.0139C9.91573 45.1177 9.91572 45.2216 9.91572 45.3066C9.91572 45.5331 9.96277 45.7031 10.0851 45.8258C10.2075 45.9674 10.3675 46.0147 10.5745 46.0147C10.8475 46.0147 11.064 45.9108 11.1863 45.7125C11.3181 45.5143 11.4404 45.1366 11.544 44.5512L12.0428 41.53H12.6827L12.1745 44.6079C12.1745 44.6079 12.1651 44.6929 12.1463 44.759C12.0522 45.3443 11.9486 45.7692 11.798 46.0335C11.6757 46.2696 11.5157 46.4395 11.2993 46.5528C11.0828 46.6756 10.8381 46.7416 10.5369 46.7416C10.151 46.7416 9.84984 46.6189 9.62396 46.3829C9.39808 46.1468 9.28516 45.8164 9.28516 45.4198C9.28516 45.3066 9.28517 45.1838 9.304 45.0516C9.31341 44.91 9.34163 44.759 9.35104 44.6079L9.85925 41.53H9.84983ZM12.6357 46.6472L13.4828 41.53H14.358L15.5815 45.6181L16.2592 41.53H16.8898L16.0615 46.6472H15.2239L13.9815 42.4175L13.2851 46.6472H12.6451H12.6357ZM16.8239 46.6472L17.6521 41.53H18.2827L17.4544 46.6472H16.8239ZM18.5085 41.53H19.1392L19.7038 45.8069L21.605 41.53H22.292L19.9767 46.6472H19.205L18.5085 41.53ZM21.7367 46.6472L22.5838 41.53H24.8237L24.7014 42.2475H23.1014L22.8661 43.7015H24.4661L24.3532 44.4002H22.7532L22.499 45.9108H24.0896L23.9767 46.6472H21.7367ZM24.7579 46.6472L25.5955 41.53H26.6967C27.2049 41.53 27.6002 41.6622 27.8731 41.9265C28.146 42.1909 28.2872 42.5686 28.2872 43.0501C28.2872 43.5316 28.1554 43.9092 27.9107 44.2019C27.6566 44.504 27.299 44.674 26.8661 44.7212L27.7413 46.6472H27.0355L25.8684 44.1358H25.9814C26.6119 44.1264 26.9978 44.0697 27.1672 43.947C27.299 43.862 27.412 43.7298 27.4873 43.5788C27.5625 43.4277 27.6096 43.2578 27.6096 43.0878C27.6096 42.814 27.5249 42.6063 27.3743 42.4553C27.2237 42.3042 27.0073 42.2287 26.7155 42.2287C26.6402 42.2287 26.546 42.2287 26.4425 42.2381C26.339 42.2381 26.2261 42.2381 26.1131 42.2475L25.3884 46.6472H24.7579ZM28.4566 45.0044H29.1154C29.1154 45.0044 29.1154 45.0516 29.106 45.08V45.146C29.106 45.4482 29.1625 45.6559 29.2754 45.8164C29.3884 45.958 29.5578 46.043 29.7743 46.043C29.9813 46.043 30.1507 45.9675 30.2825 45.8069C30.4142 45.637 30.4896 45.4576 30.4896 45.2121C30.4896 45.0422 30.4519 44.91 30.386 44.7967C30.3201 44.6834 30.179 44.5324 29.9531 44.3719C29.9154 44.3624 29.859 44.3058 29.7837 44.268C29.5013 44.0886 29.2943 43.9092 29.1625 43.7582C29.0684 43.6354 28.9931 43.5127 28.946 43.3616C28.899 43.22 28.8802 43.0501 28.8802 42.8801C28.8802 42.4647 29.0025 42.1248 29.2472 41.8604C29.4919 41.5866 29.8025 41.4545 30.179 41.4545C30.5554 41.4545 30.8189 41.5772 31.026 41.8038C31.2424 42.0304 31.346 42.3514 31.346 42.7763V42.9273H30.6966V42.8329C30.6966 42.6063 30.6495 42.4553 30.5366 42.3231C30.4425 42.2003 30.3013 42.1342 30.1319 42.1342C29.9719 42.1342 29.8213 42.2098 29.7084 42.3514C29.5954 42.4836 29.539 42.6535 29.539 42.8424C29.539 43.1067 29.7836 43.4088 30.2731 43.7487C30.3766 43.8148 30.4613 43.8715 30.5178 43.9187C30.7154 44.0509 30.8754 44.2397 30.9883 44.4663C31.1013 44.6929 31.1577 44.9383 31.1577 45.1933C31.1577 45.637 31.026 46.0241 30.7531 46.3357C30.4801 46.6283 30.1507 46.7794 29.746 46.7794C29.3131 46.7794 28.9931 46.6472 28.7766 46.3734C28.5508 46.0902 28.4378 45.6937 28.4378 45.1744V45.0422L28.4566 45.0044ZM31.3554 46.6472L32.1931 41.53H32.833L31.9954 46.6472H31.3554ZM34.7059 42.2098H34.0847L33.473 45.958H34.2354C34.7812 45.958 35.2236 45.7692 35.5718 45.3726C35.9012 44.9855 36.0706 44.4663 36.0706 43.8148C36.0706 43.2955 35.9577 42.899 35.7224 42.6252C35.4871 42.3514 35.1577 42.2098 34.7154 42.2098H34.7059ZM32.7295 46.6472L33.5671 41.53H34.7059C35.3365 41.53 35.8353 41.7283 36.1836 42.1059C36.5318 42.5025 36.7012 43.0501 36.7012 43.7487C36.7012 44.6173 36.4754 45.316 36.0236 45.8447C35.5813 46.3734 34.9695 46.6378 34.2259 46.6378H32.7201L32.7295 46.6472ZM36.3059 46.6472L38.6776 41.53H39.4118L40.287 46.6472H39.6376L39.3929 45.1838H37.6706L36.993 46.6472H36.3059ZM39.2706 44.4568L38.9506 42.3042L37.9812 44.4568H39.2706ZM42.3952 42.2098H41.7647L41.1623 45.958H41.9152C42.4705 45.958 42.9035 45.7692 43.2423 45.3726C43.5717 44.9855 43.7505 44.4663 43.7505 43.8148C43.7505 43.2955 43.6281 42.899 43.3929 42.6252C43.167 42.3514 42.8282 42.2098 42.3952 42.2098ZM40.4188 46.6472L41.2565 41.53H42.3952C43.0258 41.53 43.5246 41.7283 43.8729 42.1059C44.2211 42.5025 44.3905 43.0501 44.3905 43.7487C44.3905 44.6173 44.1646 45.316 43.7129 45.8447C43.2705 46.3734 42.6682 46.6378 41.9152 46.6378H40.4188V46.6472ZM44.5505 46.6472L45.3787 41.53H47.6187L47.4963 42.2475H45.887L45.6611 43.7015H47.261L47.1481 44.4002H45.5387L45.294 45.9108H46.894L46.7716 46.6472H44.5505Z" fill="white"/>
<path d="M77.8389 48.46H47.7881L48.9922 38.2725H59.9287L61.4824 24.8096H78.875L79.6846 17.7568H62.3008L63.1387 10.4775H82.2441L83.0537 3.52832H53.1006L53.4629 0.459961H83.7588L77.8389 48.46ZM50.1406 41.5303L49.3037 46.6475H49.9434L50.3203 44.4004H51.9199L52.0234 43.7012H50.4238L50.6592 42.248H52.2588L52.3809 41.5303H50.1406ZM54.0088 41.5303L53.1621 46.6475H55.4023L55.5244 45.9111H53.9248L54.1787 44.4004H55.7695L55.8818 43.7012H54.292L54.5176 42.248H56.1172L56.2402 41.5303H54.0088ZM57.9619 41.5303L57.1338 46.6475L57.1523 46.6377H58.6396C59.3832 46.6377 59.9857 46.3734 60.4375 45.8447C60.8892 45.3161 61.1152 44.6175 61.1152 43.749C61.1152 43.0505 60.936 42.503 60.5879 42.1064C60.2302 41.7193 59.7409 41.5303 59.1104 41.5303H57.9619ZM63.0352 41.5303L62.1973 46.6475H64.4277L64.5508 45.9111H62.9502L63.2139 44.4004H64.8135L64.917 43.7012H63.3271L63.5527 42.248H65.1523L65.2842 41.5303H63.0352ZM67.0068 41.5303L66.1592 46.6475H66.79L67.5146 42.248C67.6276 42.2386 67.7506 42.2383 67.8447 42.2383C67.9481 42.2289 68.0517 42.2285 68.127 42.2285C68.4092 42.2286 68.6258 42.3041 68.7764 42.4551C68.9269 42.6061 69.0117 42.8141 69.0117 43.0879C69.0117 43.2578 68.964 43.428 68.8887 43.5791C68.8134 43.73 68.7009 43.8624 68.5693 43.9473C68.4093 44.07 68.0137 44.1263 67.3926 44.1357H67.2793L68.4463 46.6475H69.1621L68.2676 44.7217C68.7098 44.6745 69.049 44.5042 69.3125 44.2021C69.576 43.9095 69.6982 43.5313 69.6982 43.0498C69.6982 42.5684 69.5567 42.1911 69.2744 41.9268C69.0015 41.6625 68.6158 41.5303 68.0889 41.5303H67.0068ZM72.4463 41.5303L70.0752 46.6475H70.7617L71.4209 45.1836H73.1426L73.3877 46.6475H74.0469L73.1709 41.5303H72.4463ZM75.9854 41.5303L75.1475 46.6475H77.2461L77.3691 45.9111H75.9102L76.625 41.5303H75.9854ZM59.1006 42.21C59.5429 42.21 59.8731 42.3512 60.1084 42.625C60.3342 42.8987 60.456 43.2954 60.4561 43.8145C60.4561 44.4659 60.2864 44.986 59.957 45.373C59.6183 45.7693 59.1667 45.958 58.6211 45.958H57.8584L58.4707 42.21H59.1006ZM73.0391 44.457H71.75L72.7197 42.3047L73.0391 44.457Z" fill="white"/>
<path fill-rule="evenodd" clip-rule="evenodd" d="M81.2085 42.2098H80.5779L79.9662 45.958H80.7285C81.2838 45.958 81.7262 45.7692 82.0556 45.3726C82.385 44.9855 82.5543 44.4663 82.5543 43.8148C82.5543 43.2955 82.432 42.899 82.2061 42.6252C81.9802 42.3514 81.632 42.2098 81.2085 42.2098ZM79.2227 46.6472L80.0603 41.53H81.1991C81.8297 41.53 82.3191 41.7188 82.6767 42.1059C83.0249 42.5025 83.2038 43.0501 83.2038 43.7487C83.2038 44.6173 82.9779 45.316 82.5167 45.8447C82.0744 46.3734 81.4626 46.6378 80.7191 46.6378H79.2227V46.6472ZM84.2202 44.3907C84.2202 44.91 84.3426 45.316 84.5873 45.6181C84.832 45.9297 85.1802 46.0902 85.5943 46.0902C86.112 46.0902 86.5355 45.8825 86.8649 45.4576C87.1849 45.0233 87.3543 44.4852 87.3543 43.8054C87.3543 43.2861 87.2225 42.8707 86.9872 42.5686C86.7425 42.257 86.4037 42.1154 85.9802 42.1154C85.472 42.1154 85.0579 42.3325 84.7191 42.7574C84.3897 43.1822 84.2202 43.7393 84.2202 44.4096V44.3907ZM83.5708 44.4191C83.5708 43.9659 83.6461 43.5599 83.7591 43.1822C83.8908 42.8046 84.0697 42.493 84.305 42.2192C84.5308 41.9643 84.785 41.766 85.0767 41.6339C85.3685 41.5017 85.6791 41.4356 86.0179 41.4356C86.6202 41.4356 87.1096 41.6527 87.4672 42.0682C87.8155 42.493 88.0037 43.0595 88.0037 43.7865C88.0037 44.1169 87.9755 44.4474 87.9002 44.7495C87.8249 45.0611 87.7119 45.3443 87.5708 45.5804C87.3543 45.958 87.072 46.2318 86.7237 46.449C86.3849 46.6567 86.0085 46.7511 85.5943 46.7511C84.9826 46.7511 84.5026 46.5339 84.1356 46.1185C83.7779 45.7031 83.5897 45.1461 83.5897 44.4285L83.5708 44.4191ZM89.8672 46.6472L90.7143 41.53H91.806C92.3142 41.53 92.7095 41.6622 92.9919 41.9265C93.2742 42.1909 93.406 42.5686 93.406 43.0501C93.406 43.5316 93.2836 43.9092 93.0295 44.2019C92.7754 44.504 92.4272 44.674 91.9848 44.7212L92.8789 46.6472H92.1731L91.006 44.1358H91.119C91.7307 44.1264 92.126 44.0697 92.2954 43.947C92.4272 43.862 92.5307 43.7298 92.6154 43.5788C92.6907 43.4277 92.7377 43.2578 92.7377 43.0878C92.7377 42.814 92.6531 42.6063 92.4931 42.4553C92.3331 42.3042 92.1166 42.2287 91.8437 42.2287C91.759 42.2287 91.6742 42.2287 91.5613 42.2381C91.4672 42.2381 91.3448 42.2381 91.2319 42.2475L90.5166 46.6472H89.8766H89.8672ZM93.453 46.6472L94.2907 41.53H94.9212L94.0836 46.6472H93.453ZM95.7024 44.3907C95.7024 44.91 95.8248 45.316 96.0695 45.6181C96.3236 45.9297 96.6624 46.0902 97.0765 46.0902C97.5848 46.0902 98.0082 45.8825 98.3282 45.4576C98.6576 45.0233 98.8271 44.4852 98.8271 43.8054C98.8271 43.2861 98.7047 42.8707 98.46 42.5686C98.1965 42.257 97.8671 42.1154 97.453 42.1154C96.9447 42.1154 96.5118 42.3325 96.1824 42.7574C95.853 43.1822 95.693 43.7393 95.693 44.4096L95.7024 44.3907ZM95.053 44.4191C95.053 43.9659 95.1189 43.5599 95.2413 43.1822C95.3636 42.8046 95.5424 42.493 95.7871 42.2192C96.013 41.9643 96.2765 41.766 96.5588 41.6339C96.8412 41.5017 97.1612 41.4356 97.5094 41.4356C98.1024 41.4356 98.5824 41.6527 98.9589 42.0682C99.3165 42.493 99.4953 43.0595 99.4953 43.7865C99.4953 44.1169 99.4576 44.4474 99.3823 44.7495C99.307 45.0611 99.1941 45.3443 99.0529 45.5804C98.8365 45.958 98.5541 46.2318 98.2059 46.449C97.8576 46.6567 97.4812 46.7511 97.0765 46.7511C96.4648 46.7511 95.9754 46.5339 95.6083 46.1185C95.2507 45.7031 95.0624 45.1461 95.0624 44.4285L95.053 44.4191ZM105.698 44.7778H103.712L103.815 44.1358H106.469C106.385 44.9289 106.121 45.5615 105.698 46.043C105.255 46.5151 104.719 46.7416 104.06 46.7416C103.401 46.7416 102.94 46.5245 102.582 46.0996C102.215 45.6748 102.036 45.0894 102.036 44.353C102.036 43.947 102.093 43.5788 102.215 43.2294C102.328 42.8612 102.498 42.5591 102.714 42.2853C102.94 42.0021 103.203 41.7849 103.486 41.6527C103.787 41.5017 104.107 41.4261 104.455 41.4261C104.982 41.4261 105.415 41.5678 105.745 41.8699C106.083 42.1815 106.319 42.6158 106.441 43.2011H105.754C105.669 42.8424 105.509 42.5591 105.283 42.3797C105.058 42.1909 104.785 42.0965 104.446 42.0965C103.947 42.0965 103.514 42.3136 103.194 42.7385C102.855 43.1634 102.686 43.7015 102.686 44.3624C102.686 44.8817 102.818 45.3066 103.072 45.6087C103.326 45.9297 103.655 46.0902 104.079 46.0902C104.436 46.0902 104.756 45.9674 105.058 45.7314C105.349 45.4954 105.566 45.1649 105.698 44.7873V44.7778ZM106.601 46.6472L107.448 41.53H108.54C109.048 41.53 109.443 41.6622 109.716 41.9265C109.999 42.1909 110.14 42.5686 110.14 43.0501C110.14 43.5316 110.008 43.9092 109.754 44.2019C109.5 44.504 109.142 44.674 108.709 44.7212L109.594 46.6472H108.888L107.721 44.1358H107.834C108.465 44.1264 108.85 44.0697 109.01 43.947C109.152 43.862 109.255 43.7298 109.34 43.5788C109.415 43.4277 109.453 43.2578 109.453 43.0878C109.453 42.814 109.377 42.6063 109.217 42.4553C109.057 42.3042 108.85 42.2287 108.559 42.2287C108.483 42.2287 108.389 42.2287 108.295 42.2381C108.182 42.2381 108.079 42.2381 107.956 42.2475L107.232 46.6472H106.601ZM109.575 46.6472L111.947 41.53H112.672L113.556 46.6472H112.897L112.643 45.1838H110.93L110.253 46.6472H109.566H109.575ZM112.549 44.4568L112.229 42.3042L111.269 44.4568H112.549ZM113.773 46.6472L114.62 41.53H115.495L116.719 45.6181L117.396 41.53H118.027L117.189 46.6472H116.361L115.109 42.4175L114.413 46.6472H113.782H113.773ZM119.918 42.2098H119.288L118.686 45.958H119.448C119.994 45.958 120.436 45.7692 120.775 45.3726C121.114 44.9855 121.274 44.4663 121.274 43.8148C121.274 43.2955 121.161 42.899 120.935 42.6252C120.7 42.3514 120.361 42.2098 119.918 42.2098ZM117.951 46.6472L118.77 41.53H119.909C120.549 41.53 121.038 41.7188 121.387 42.1059C121.754 42.5025 121.914 43.0501 121.914 43.7487C121.914 44.6173 121.688 45.316 121.236 45.8447C120.784 46.3734 120.182 46.6378 119.438 46.6378H117.951V46.6472ZM122.064 46.6472L122.911 41.53H125.151L125.029 42.2475H123.429L123.194 43.7015H124.794L124.681 44.4002H123.09L122.827 45.9108H124.427L124.314 46.6472H122.074H122.064ZM128.803 42.2098H128.172L127.561 45.958H128.332C128.878 45.958 129.321 45.7692 129.66 45.3726C129.989 44.9855 130.158 44.4663 130.158 43.8148C130.158 43.2955 130.045 42.899 129.81 42.6252C129.584 42.3514 129.245 42.2098 128.803 42.2098ZM126.827 46.6472L127.645 41.53H128.794C129.424 41.53 129.923 41.7188 130.262 42.1059C130.619 42.5025 130.789 43.0501 130.789 43.7487C130.789 44.6173 130.563 45.316 130.102 45.8447C129.66 46.3734 129.057 46.6378 128.314 46.6378H126.817L126.827 46.6472ZM131.815 44.3907C131.815 44.91 131.947 45.316 132.191 45.6181C132.445 45.9297 132.784 46.0902 133.198 46.0902C133.707 46.0902 134.13 45.8825 134.459 45.4576C134.789 45.0233 134.949 44.4852 134.949 43.8054C134.949 43.2861 134.827 42.8707 134.582 42.5686C134.328 42.257 133.989 42.1154 133.575 42.1154C133.057 42.1154 132.643 42.3325 132.304 42.7574C131.984 43.1822 131.805 43.7393 131.805 44.4096L131.815 44.3907ZM131.165 44.4191C131.165 43.9659 131.231 43.5599 131.354 43.1822C131.476 42.8046 131.655 42.493 131.89 42.2192C132.116 41.9643 132.38 41.766 132.662 41.6339C132.954 41.5017 133.264 41.4356 133.603 41.4356C134.215 41.4356 134.695 41.6527 135.052 42.0682C135.401 42.493 135.589 43.0595 135.589 43.7865C135.589 44.1169 135.551 44.4474 135.476 44.7495C135.401 45.0611 135.297 45.3443 135.146 45.5804C134.921 45.958 134.648 46.2318 134.299 46.449C133.951 46.6567 133.584 46.7511 133.17 46.7511C132.558 46.7511 132.069 46.5339 131.702 46.1185C131.344 45.7031 131.156 45.1461 131.156 44.4285L131.165 44.4191ZM137.782 46.6472L138.638 41.53H139.504L140.718 45.6181L141.415 41.53H142.036L141.198 46.6472H140.361L139.118 42.4175L138.412 46.6472H137.782ZM142.826 44.3907C142.826 44.91 142.958 45.316 143.203 45.6181C143.448 45.9297 143.786 46.0902 144.21 46.0902C144.718 46.0902 145.132 45.8825 145.471 45.4576C145.791 45.0233 145.96 44.4852 145.96 43.8054C145.96 43.2861 145.829 42.8707 145.584 42.5686C145.339 42.257 144.991 42.1154 144.586 42.1154C144.078 42.1154 143.645 42.3325 143.325 42.7574C142.996 43.1822 142.826 43.7393 142.826 44.4096V44.3907ZM142.177 44.4191C142.177 43.9659 142.233 43.5599 142.375 43.1822C142.488 42.8046 142.676 42.493 142.911 42.2192C143.137 41.9643 143.391 41.766 143.683 41.6339C143.975 41.5017 144.285 41.4356 144.633 41.4356C145.236 41.4356 145.706 41.6527 146.073 42.0682C146.431 42.493 146.619 43.0595 146.619 43.7865C146.619 44.1169 146.582 44.4474 146.506 44.7495C146.431 45.0611 146.318 45.3443 146.177 45.5804C145.96 45.958 145.669 46.2318 145.32 46.449C144.982 46.6567 144.605 46.7511 144.191 46.7511C143.579 46.7511 143.09 46.5339 142.723 46.1185C142.365 45.7031 142.177 45.1461 142.177 44.4285V44.4191ZM146.732 46.6472L147.57 41.53H148.662C149.179 41.53 149.565 41.6622 149.847 41.9265C150.12 42.1909 150.262 42.5686 150.262 43.0501C150.262 43.5316 150.13 43.9092 149.876 44.2019C149.622 44.504 149.273 44.674 148.831 44.7212L149.716 46.6472H149.01L147.843 44.1358H147.946C148.558 44.1264 148.963 44.0697 149.132 43.947C149.264 43.862 149.377 43.7298 149.452 43.5788C149.527 43.4277 149.565 43.2578 149.565 43.0878C149.565 42.814 149.48 42.6063 149.33 42.4553C149.17 42.3042 148.953 42.2287 148.671 42.2287C148.596 42.2287 148.511 42.2287 148.398 42.2381C148.295 42.2381 148.191 42.2381 148.059 42.2475L147.335 46.6472H146.704H146.732ZM150.911 46.6472L151.645 42.2381H150.685L150.807 41.53H153.311L153.207 42.2381H152.285L151.551 46.6472H150.92H150.911ZM152.887 46.6472L153.725 41.53H155.965L155.843 42.2475H154.233L154.007 43.7015H155.598L155.485 44.4002H153.894L153.631 45.9108H155.231L155.109 46.6472H152.878H152.887Z" fill="white"/>
<path fill-rule="evenodd" clip-rule="evenodd" d="M50.8469 22.8927C50.2352 28.2082 48.5034 32.1264 45.6893 34.6283C42.3105 37.6212 37.0118 39.1319 29.7554 39.1319C22.4991 39.1319 17.3792 37.7723 14.6874 35.0532C12.2028 32.5323 11.2804 28.482 11.9298 22.8927L14.1792 3.52841H25.2473L23.0073 22.8927C22.6591 25.8856 23.1203 28.246 24.372 29.9454C25.6238 31.6448 27.5343 32.4946 30.0566 32.4946C32.5789 32.4946 34.5648 31.777 36.2589 30.3042C38.2165 28.6142 39.3929 26.1405 39.76 22.8927L42.0094 3.52841H53.0775L50.8375 22.8927H50.8469ZM115.213 38.2727H103.354L103.674 28.2554C103.59 27.6039 103.373 26.9619 103.025 26.3671C102.648 25.8195 102.074 25.338 101.321 24.9131C100.211 24.9131 98.3568 24.8754 95.778 24.7998C93.1898 24.7338 91.8062 24.7054 91.618 24.7054L90.0463 38.2633H78.9782L83.0064 3.50952H105.933C109.058 3.50952 111.759 4.25539 114.046 5.69992C116.766 7.44658 117.952 9.78804 117.604 12.7526C117.368 14.7731 116.427 16.5386 114.761 18.0304C113.246 19.3805 111.326 20.353 109.011 20.9478L108.964 21.3726C109.839 21.4576 110.724 21.6747 111.589 21.9958C114.291 22.9965 114.874 24.6866 115.147 27.5662L115.213 37.4135L119.128 3.50952H134.902L147.269 26.5087L149.932 3.50952H160.285L156.257 38.2633H141.236L128.201 14.7259L125.472 38.2633H115.222L115.213 38.2727ZM105.905 14.0083C106.027 12.9037 105.538 11.9407 104.418 11.1476C103.298 10.3451 102.065 9.93911 100.71 9.93911H93.3121L92.3333 18.3986H99.825C101.425 18.3986 102.808 18.0209 103.966 17.2467C105.077 16.482 105.735 15.4057 105.895 14.0083H105.905Z" fill="white"/>
</svg>
